<svg width="108" height="120" viewBox="0 0 108 120" fill="none" xmlns="http://www.w3.org/2000/svg">
<path d="M57.3352 102.692C57.5464 102.476 57.6517 102.192 57.6517 101.841C57.6517 101.489 57.5443 101.201 57.3285 100.976C57.1127 100.751 56.827 100.638 56.4704 100.638H54.9795V103.016H56.4704C56.8364 103.015 57.1246 102.908 57.3352 102.692Z" fill="#006D77"/>
<path d="M21.4282 100.877C20.6358 100.877 20.003 101.135 19.5291 101.651C19.0558 102.167 18.8191 102.856 18.8191 103.719C18.8191 104.581 19.0558 105.27 19.5291 105.786C20.0024 106.302 20.6353 106.56 21.4282 106.56C22.2206 106.56 22.8534 106.302 23.3273 105.786C23.8006 105.27 24.0373 104.581 24.0373 103.719C24.0373 102.856 23.8001 102.167 23.3273 101.651C22.8534 101.135 22.2206 100.877 21.4282 100.877Z" fill="#006D77"/>
<path d="M10.9693 115.389H10.9557L10.2629 117.481H11.6616L10.9693 115.389Z" fill="#006D77"/>
<path d="M96.3874 115.054H95.251V116.505H96.3478C96.6194 116.501 96.8227 116.423 96.9587 116.269C97.0922 116.127 97.1589 115.952 97.1589 115.744C97.1548 115.494 97.0745 115.314 96.9191 115.202C96.7966 115.104 96.6194 115.054 96.3874 115.054Z" fill="#006D77"/>
<path d="M71.1257 101.679L69.9585 105.195H72.2929L71.1257 101.679Z" fill="#006D77"/>
<path d="M14.9014 77.9609L25.1032 67.7586V32.43H32.5787V60.2831L42.7805 50.0813V22.2334H14.9066L14.9014 77.9609Z" fill="#006D77"/>
<path d="M70.6545 50.1074H46.4036L36.2278 60.2832V60.3093H60.4579V67.7847H28.7263L18.5505 77.961V77.9866L70.6545 77.9813V50.1074Z" fill="#006D77"/>
<path d="M92.8878 3.62305L82.6912 13.8197V29.7141H66.7967L56.6001 39.9108H92.8878V3.62305Z" fill="#006D77"/>
<path d="M52.9771 39.8847L63.1737 29.688V10.1966H82.6651L92.8617 0H52.9771V39.8847Z" fill="#006D77"/>
<path d="M0.000488281 115.054H1.31052V119.195H2.03982V115.054H3.34984V114.407H0.000488281V115.054Z" fill="#006D77"/>
<path d="M10.0527 118.125H11.8684L12.2395 119.195H13.0048L11.2642 114.408H10.6569L8.91626 119.195H9.68466L10.0527 118.125ZM10.9556 115.389H10.9686L11.6614 117.481H10.2628L10.9556 115.389Z" fill="#006D77"/>
<path d="M20.2526 115.442C20.3292 115.344 20.4298 115.262 20.5544 115.195C20.6769 115.132 20.8239 115.098 20.9944 115.094C21.2264 115.098 21.4234 115.165 21.5855 115.294C21.7409 115.43 21.8483 115.594 21.9072 115.787H22.6756C22.5989 115.386 22.4155 115.05 22.124 114.778C21.8326 114.509 21.4563 114.372 20.9944 114.368C20.6175 114.373 20.3037 114.463 20.0519 114.638C19.7959 114.811 19.6098 115.008 19.4936 115.229C19.4216 115.345 19.3679 115.497 19.3325 115.686C19.2996 115.874 19.283 116.246 19.283 116.802C19.283 117.349 19.2996 117.72 19.3325 117.912C19.3502 118.015 19.3721 118.1 19.3982 118.168C19.4268 118.234 19.4586 118.302 19.4936 118.375C19.6098 118.596 19.7959 118.791 20.0519 118.959C20.3037 119.134 20.6175 119.226 20.9944 119.235C21.4828 119.226 21.8874 119.061 22.2095 118.739C22.5291 118.415 22.6933 118.014 22.7022 117.534V116.559H21.0012V117.245H21.9765V117.495C21.9723 117.795 21.878 118.037 21.694 118.221C21.51 118.413 21.2769 118.509 20.9944 118.509C20.8234 118.509 20.6769 118.473 20.5544 118.401C20.4298 118.339 20.3287 118.26 20.2526 118.161C20.1582 118.058 20.0962 117.923 20.0654 117.757C20.0305 117.591 20.0128 117.272 20.0128 116.802C20.0128 116.331 20.0305 116.01 20.0654 115.839C20.0962 115.677 20.1582 115.545 20.2526 115.442Z" fill="#006D77"/>
<path d="M32.8591 114.407V119.195H35.9166V118.509H33.5848V114.407H32.8591Z" fill="#006D77"/>
<path d="M43.3773 114.407H42.6516V119.195H43.3773V114.407Z" fill="#006D77"/>
<path d="M53.2889 117.809L51.1214 114.407H50.4385V119.195H51.1646V115.793H51.1772L53.3411 119.195H54.0276V114.407H53.302V117.809H53.2889Z" fill="#006D77"/>
<path d="M64.1487 115.094V114.407H61.0918V119.195H64.1487V118.509H61.8174V117.103H63.8073V116.46H61.8174V115.094H64.1487Z" fill="#006D77"/>
<path d="M77.6687 119.195V114.407H76.9431V116.46H75.0482V114.407H74.3225V119.195H75.0482V117.103H76.9431V119.195H77.6687Z" fill="#006D77"/>
<path d="M87.7896 115.094V114.407H84.7327V119.195H87.7896V118.509H85.4583V117.103H87.4486V116.46H85.4583V115.094H87.7896Z" fill="#006D77"/>
<path d="M97.8456 115.744C97.8326 115.302 97.6736 114.961 97.3691 114.723C97.1173 114.513 96.7926 114.407 96.3938 114.407H94.5249V119.195H95.2506V117.149H96.1764L97.1648 119.195H98.0286L96.9187 117.07C97.5281 116.836 97.8367 116.394 97.8456 115.744ZM96.9588 116.269C96.8228 116.423 96.6195 116.501 96.3479 116.505H95.2511V115.054H96.3875C96.6195 115.054 96.7967 115.104 96.9192 115.202C97.0746 115.313 97.1543 115.494 97.159 115.743C97.159 115.952 97.0923 116.127 96.9588 116.269Z" fill="#006D77"/>
<path d="M104.68 119.195H107.737V118.509H105.405V117.103H107.395V116.46H105.405V115.094H107.737V114.407H104.68V119.195Z" fill="#006D77"/>
<path d="M6.90619 105.477C6.53085 106.199 5.93083 106.56 5.10561 106.56C4.2804 106.56 3.63086 106.302 3.15752 105.786C2.68418 105.271 2.4475 104.582 2.4475 103.719C2.4475 102.856 2.68418 102.167 3.15752 101.651C3.63086 101.136 4.2804 100.878 5.10561 100.878C5.93031 100.878 6.53085 101.239 6.90619 101.96H9.77542C9.43814 100.929 8.84282 100.123 7.98945 99.5411C7.13608 98.9598 6.16073 98.6689 5.06391 98.6689C3.64806 98.6689 2.45011 99.1449 1.47007 100.097C0.490022 101.049 0 102.255 0 103.718C0 105.181 0.490022 106.388 1.47007 107.34C2.44959 108.292 3.64754 108.768 5.06391 108.768C6.16073 108.768 7.13608 108.477 7.98945 107.895C8.84282 107.314 9.43814 106.508 9.77542 105.476H6.90619V105.477Z" fill="#006D77"/>
<path d="M26.4847 103.718C26.4847 102.255 25.9994 101.048 25.0293 100.097C24.0586 99.1454 22.8633 98.6689 21.4427 98.6689C20.0217 98.6689 18.8216 99.1449 17.8421 100.097C16.8621 101.049 16.3726 102.255 16.3726 103.718C16.3726 105.181 16.8621 106.39 17.8421 107.347C18.8216 108.304 20.0196 108.782 21.4359 108.782C22.8518 108.782 24.0471 108.304 25.0225 107.347C25.9968 106.391 26.4847 105.181 26.4847 103.718ZM23.3272 105.786C22.8534 106.302 22.2205 106.559 21.4281 106.559C20.6358 106.559 20.0029 106.301 19.529 105.786C19.0557 105.27 18.819 104.581 18.819 103.718C18.819 102.855 19.0557 102.166 19.529 101.651C20.0024 101.135 20.6352 100.877 21.4281 100.877C22.2205 100.877 22.8534 101.135 23.3272 101.651C23.8006 102.167 24.0372 102.855 24.0372 103.718C24.0372 104.581 23.8 105.271 23.3272 105.786Z" fill="#006D77"/>
<path d="M44.8391 98.8098H42.0825L39.2555 105.617L36.4144 98.8098H33.6572V108.683H36.0625V103.114L38.3552 108.683H40.1412L42.4338 103.114V108.683H44.8391V98.8098Z" fill="#006D77"/>
<path d="M54.9795 104.844H56.4704C57.1549 104.844 57.7481 104.743 58.2496 104.541C58.7511 104.34 59.1285 104.08 59.3819 103.761C59.8599 103.142 60.0992 102.5 60.0992 101.834C60.0992 101 59.7801 100.287 59.1426 99.6965C58.5045 99.1059 57.6141 98.8103 56.4704 98.8103H52.5742V108.684H54.9795V104.844ZM54.9795 100.639H56.4704C56.827 100.639 57.1127 100.751 57.3285 100.976C57.5443 101.202 57.6517 101.49 57.6517 101.841C57.6517 102.193 57.5464 102.477 57.3353 102.692C57.1241 102.908 56.8364 103.015 56.4704 103.015H54.9795V100.639Z" fill="#006D77"/>
<path d="M69.3538 107.024H72.8982L73.4471 108.684H76.0208L72.6031 98.7822H69.6776L66.2458 108.684H68.8054L69.3538 107.024ZM71.1257 101.679L72.2929 105.195H69.958L71.1257 101.679Z" fill="#006D77"/>
<path d="M91.6608 108.683V98.7817H89.2555V105.013L85.2332 98.7817H82.8279V108.683H85.2332V102.453L89.2555 108.683H91.6608Z" fill="#006D77"/>
<path d="M103.18 103.268L101.281 98.8098H98.5525L101.97 105.505V108.683H104.375V105.505L107.793 98.8098H105.065L103.18 103.268Z" fill="#006D77"/>
</svg>
