<svg width="36" height="36" viewBox="0 0 36 36" fill="none" xmlns="http://www.w3.org/2000/svg">
<path d="M3 7.905L4.92 6L30 31.08L28.095 33L23.475 28.38C21.75 28.95 19.92 29.25 18 29.25C10.5 29.25 4.095 24.585 1.5 18C2.535 15.36 4.185 13.035 6.285 11.19L3 7.905ZM18 13.5C19.1935 13.5 20.3381 13.9741 21.182 14.818C22.0259 15.6619 22.5 16.8065 22.5 18C22.5008 18.5108 22.4145 19.0181 22.245 19.5L16.5 13.755C16.9819 13.5855 17.4892 13.4992 18 13.5ZM18 6.75C25.5 6.75 31.905 11.415 34.5 18C33.2751 21.1094 31.1948 23.8085 28.5 25.785L26.37 23.64C28.4444 22.2052 30.1174 20.2637 31.23 18C30.0175 15.5248 28.1348 13.4394 25.796 11.981C23.4573 10.5226 20.7562 9.74964 18 9.75C16.365 9.75 14.76 10.02 13.26 10.5L10.95 8.205C13.11 7.275 15.495 6.75 18 6.75ZM4.77 18C5.98252 20.4752 7.86518 22.5606 10.204 24.019C12.5427 25.4774 15.2438 26.2504 18 26.25C19.035 26.25 20.055 26.145 21 25.935L17.58 22.5C16.5362 22.3881 15.5622 21.9223 14.82 21.18C14.0777 20.4378 13.6119 19.4638 13.5 18.42L8.4 13.305C6.915 14.58 5.67 16.17 4.77 18Z" fill="#006D77" fill-opacity="0.4"/>
</svg>
