<svg width="31" height="31" viewBox="0 0 31 31" fill="none" xmlns="http://www.w3.org/2000/svg">
<path d="M13.4161 6.12614C13.9423 6.04589 14.4739 6.00578 15.0061 6.00614C19.7761 6.00614 24.2611 9.44114 26.8711 15.0061C26.4728 15.8534 26.0219 16.675 25.5211 17.4661C25.3624 17.7119 25.279 17.9986 25.2811 18.2911C25.2845 18.6185 25.3948 18.9358 25.5953 19.1946C25.7958 19.4533 26.0755 19.6394 26.3917 19.7244C26.7078 19.8094 27.0431 19.7886 27.3463 19.6652C27.6496 19.5419 27.9041 19.3227 28.0711 19.0411C28.7687 17.9423 29.3757 16.7885 29.8861 15.5911C29.9666 15.404 30.0081 15.2024 30.0081 14.9986C30.0081 14.7949 29.9666 14.5933 29.8861 14.4061C26.8561 7.37114 21.1561 3.00614 15.0061 3.00614C14.3022 3.00443 13.5995 3.06466 12.9061 3.18614C12.7092 3.21962 12.5207 3.29158 12.3515 3.3979C12.1823 3.50422 12.0358 3.64282 11.9202 3.80579C11.8046 3.96876 11.7222 4.1529 11.6777 4.3477C11.6333 4.54251 11.6276 4.74415 11.6611 4.94114C11.6946 5.13812 11.7666 5.32658 11.8729 5.49575C11.9792 5.66493 12.1178 5.8115 12.2808 5.92711C12.4438 6.04272 12.6279 6.1251 12.8227 6.16954C13.0175 6.21399 13.2192 6.21962 13.4161 6.18614V6.12614ZM2.57114 0.441137C2.43128 0.30128 2.26524 0.190338 2.08251 0.114648C1.89978 0.0389573 1.70393 0 1.50614 0C1.30835 0 1.1125 0.0389573 0.929764 0.114648C0.747031 0.190338 0.580995 0.30128 0.441137 0.441137C0.158682 0.723593 0 1.10668 0 1.50614C0 1.90559 0.158682 2.28868 0.441137 2.57114L5.09114 7.20614C2.96887 9.2479 1.2802 11.6967 0.126137 14.4061C0.0435423 14.5954 0.000910163 14.7996 0.000910163 15.0061C0.000910163 15.2126 0.0435423 15.4169 0.126137 15.6061C3.15614 22.6411 8.85614 27.0061 15.0061 27.0061C17.7018 26.9875 20.3338 26.1849 22.5811 24.6961L27.4411 29.5711C27.5806 29.7117 27.7465 29.8233 27.9293 29.8995C28.1121 29.9756 28.3081 30.0148 28.5061 30.0148C28.7042 30.0148 28.9002 29.9756 29.083 29.8995C29.2658 29.8233 29.4317 29.7117 29.5711 29.5711C29.7117 29.4317 29.8233 29.2658 29.8995 29.083C29.9756 28.9002 30.0148 28.7042 30.0148 28.5061C30.0148 28.3081 29.9756 28.1121 29.8995 27.9293C29.8233 27.7465 29.7117 27.5806 29.5711 27.4411L2.57114 0.441137ZM12.1111 14.2261L15.7861 17.9011C15.5327 17.974 15.2699 18.0094 15.0061 18.0061C14.2105 18.0061 13.4474 17.6901 12.8848 17.1275C12.3222 16.5648 12.0061 15.8018 12.0061 15.0061C12.0029 14.7424 12.0382 14.4796 12.1111 14.2261ZM15.0061 24.0061C10.2361 24.0061 5.75114 20.5711 3.15614 15.0061C4.1256 12.867 5.50103 10.9363 7.20614 9.32114L9.86114 12.0061C9.23751 13.1443 8.99975 14.4541 9.18353 15.7388C9.3673 17.0236 9.96271 18.2141 10.8804 19.1318C11.7981 20.0496 12.9887 20.645 14.2735 20.8287C15.5582 21.0125 16.8679 20.7748 18.0061 20.1511L20.3911 22.5061C18.7578 23.4675 16.9013 23.9846 15.0061 24.0061Z" fill="#1D3557" fill-opacity="0.6"/>
</svg>
