<svg width="23" height="18" viewBox="0 0 23 18" fill="none" xmlns="http://www.w3.org/2000/svg">
<path d="M22.3904 8.54102C20.1203 3.27031 15.8497 0 11.2421 0C6.63444 0 2.36393 3.27031 0.0938217 8.54102C0.0319405 8.6828 0 8.83584 0 8.99054C0 9.14525 0.0319405 9.29828 0.0938217 9.44007C2.36393 14.7108 6.63444 17.9811 11.2421 17.9811C15.8497 17.9811 20.1203 14.7108 22.3904 9.44007C22.4522 9.29828 22.4842 9.14525 22.4842 8.99054C22.4842 8.83584 22.4522 8.6828 22.3904 8.54102ZM11.2421 15.7335C7.67959 15.7335 4.30814 13.1599 2.36393 8.99054C4.30814 4.82118 7.67959 2.24764 11.2421 2.24764C14.8046 2.24764 18.1761 4.82118 20.1203 8.99054C18.1761 13.1599 14.8046 15.7335 11.2421 15.7335ZM11.2421 4.49527C10.353 4.49527 9.4839 4.75891 8.74466 5.25286C8.00541 5.74681 7.42924 6.44887 7.08901 7.27028C6.74877 8.09168 6.65975 8.99553 6.8332 9.86753C7.00665 10.7395 7.43478 11.5405 8.06346 12.1692C8.69213 12.7979 9.49311 13.226 10.3651 13.3994C11.2371 13.5729 12.141 13.4839 12.9624 13.1436C13.7838 12.8034 14.4858 12.2272 14.9798 11.488C15.4737 10.7487 15.7374 9.87962 15.7374 8.99054C15.7374 7.79832 15.2638 6.65493 14.4207 5.81191C13.5777 4.96888 12.4343 4.49527 11.2421 4.49527ZM11.2421 11.2382C10.7976 11.2382 10.363 11.1064 9.99338 10.8594C9.62375 10.6124 9.33567 10.2614 9.16555 9.85068C8.99543 9.43997 8.95092 8.98805 9.03765 8.55205C9.12437 8.11605 9.33844 7.71556 9.65278 7.40123C9.96711 7.08689 10.3676 6.87282 10.8036 6.7861C11.2396 6.69937 11.6915 6.74388 12.1022 6.914C12.5129 7.08412 12.864 7.3722 13.1109 7.74182C13.3579 8.11145 13.4897 8.546 13.4897 8.99054C13.4897 9.58665 13.2529 10.1583 12.8314 10.5799C12.4099 11.0014 11.8382 11.2382 11.2421 11.2382Z" fill="#1D3557" fill-opacity="0.6"/>
</svg>
