<svg width="741" height="597" viewBox="0 0 741 597" fill="none" xmlns="http://www.w3.org/2000/svg">
<path d="M741 524.634H0V525.035H741V524.634Z" fill="#EBEBEB"/>
<path d="M351.234 453.166H65.0746C62.8328 453.162 60.6843 452.196 59.1005 450.481C57.5167 448.765 56.6272 446.44 56.6272 444.016V9.06973C56.6467 6.65972 57.5448 4.35536 59.1265 2.65717C60.7082 0.958985 62.8456 0.00412847 65.0746 0H351.234C353.478 0 355.631 0.964 357.218 2.67993C358.805 4.39586 359.696 6.72316 359.696 9.14985V444.016C359.696 446.443 358.805 448.77 357.218 450.486C355.631 452.202 353.478 453.166 351.234 453.166ZM65.0746 0.320486C62.9311 0.324731 60.8768 1.24839 59.3625 2.88874C57.8482 4.52908 56.9977 6.75206 56.9977 9.06973V444.016C56.9977 446.334 57.8482 448.557 59.3625 450.197C60.8768 451.838 62.9311 452.761 65.0746 452.766H351.234C353.379 452.761 355.435 451.838 356.951 450.198C358.468 448.558 359.322 446.335 359.326 444.016V9.06973C359.322 6.75059 358.468 4.52764 356.951 2.88776C355.435 1.24787 353.379 0.324722 351.234 0.320486H65.0746Z" fill="#EBEBEB"/>
<path d="M671.805 453.166H385.631C383.388 453.162 381.238 452.197 379.652 450.482C378.066 448.767 377.173 446.442 377.169 444.016V9.06973C377.192 6.65826 378.094 4.35392 379.678 2.65617C381.262 0.958425 383.401 0.00408345 385.631 0H671.805C674.032 0.00833982 676.165 0.96506 677.744 2.6628C679.322 4.36053 680.218 6.66249 680.238 9.06973V444.016C680.238 446.437 679.35 448.76 677.77 450.475C676.189 452.19 674.045 453.158 671.805 453.166ZM385.631 0.320486C383.486 0.324722 381.43 1.24787 379.914 2.88776C378.397 4.52764 377.543 6.75059 377.539 9.06973V444.016C377.543 446.335 378.397 448.558 379.914 450.198C381.43 451.838 383.486 452.761 385.631 452.766H671.805C673.95 452.761 676.006 451.838 677.523 450.198C679.039 448.558 679.893 446.335 679.897 444.016V9.06973C679.893 6.75059 679.039 4.52764 677.523 2.88776C676.006 1.24787 673.95 0.324722 671.805 0.320486H385.631Z" fill="#EBEBEB"/>
<path d="M666.752 539.889H619.965V540.29H666.752V539.889Z" fill="#EBEBEB"/>
<path d="M496.974 535.547H447.46V535.947H496.974V535.547Z" fill="#EBEBEB"/>
<path d="M680.268 554.776H587.746V555.176H680.268V554.776Z" fill="#EBEBEB"/>
<path d="M106.244 552.084H77.7456V552.485H106.244V552.084Z" fill="#EBEBEB"/>
<path d="M164.339 552.084H119.449V552.485H164.339V552.084Z" fill="#EBEBEB"/>
<path d="M361.815 545.322H280.958V545.722H361.815V545.322Z" fill="#EBEBEB"/>
<path d="M555.216 524.634V246.197H490.66V524.634H555.216Z" fill="#F0F0F0"/>
<path d="M551.675 315.726V254.321H494.203V315.726H551.675Z" fill="#F5F5F5"/>
<path d="M535.669 253.52H510.223C510.223 255.22 510.848 256.85 511.959 258.052C513.071 259.254 514.579 259.929 516.151 259.929H529.815C531.375 259.908 532.863 259.224 533.959 258.024C535.055 256.824 535.669 255.206 535.669 253.52Z" fill="#E6E6E6"/>
<path d="M551.675 382.659V321.254H494.203V382.659H551.675Z" fill="#F5F5F5"/>
<path d="M551.675 449.577V388.172H494.203V449.577H551.675Z" fill="#F5F5F5"/>
<path d="M551.675 516.494V455.089H494.203V516.494H551.675Z" fill="#F5F5F5"/>
<path d="M535.669 320.485H510.223C510.223 322.185 510.848 323.816 511.959 325.018C513.071 326.22 514.579 326.895 516.151 326.895H529.815C531.375 326.874 532.863 326.189 533.959 324.99C535.055 323.79 535.669 322.172 535.669 320.485Z" fill="#E6E6E6"/>
<path d="M535.669 387.354H510.223C510.223 389.054 510.848 390.685 511.959 391.887C513.071 393.089 514.579 393.764 516.151 393.764H529.815C531.375 393.743 532.863 393.059 533.959 391.859C535.055 390.659 535.669 389.041 535.669 387.354Z" fill="#E6E6E6"/>
<path d="M535.669 454.272H510.223C510.223 455.972 510.848 457.602 511.959 458.804C513.071 460.006 514.579 460.682 516.151 460.682H529.815C531.375 460.661 532.863 459.976 533.959 458.776C535.055 457.576 535.669 455.958 535.669 454.272Z" fill="#E6E6E6"/>
<path d="M587.465 524.634V246.197H555.217V524.634H587.465Z" fill="#F5F5F5"/>
<path d="M625.597 524.65V246.213H561.041V524.65H625.597Z" fill="#F0F0F0"/>
<path d="M622.055 315.726V254.321H564.583V315.726H622.055Z" fill="#F5F5F5"/>
<path d="M606.049 253.52H580.603C580.603 255.22 581.228 256.85 582.34 258.052C583.451 259.254 584.959 259.929 586.531 259.929H600.21C601.767 259.904 603.252 259.218 604.345 258.018C605.437 256.819 606.049 255.203 606.049 253.52Z" fill="#E6E6E6"/>
<path d="M622.055 382.643V321.238H564.583V382.643H622.055Z" fill="#F5F5F5"/>
<path d="M622.07 449.577V388.172H564.598V449.577H622.07Z" fill="#F5F5F5"/>
<path d="M622.055 516.494V455.089H564.583V516.494H622.055Z" fill="#F5F5F5"/>
<path d="M606.049 320.485H580.603C580.603 322.185 581.228 323.816 582.34 325.018C583.451 326.22 584.959 326.895 586.531 326.895H600.21C601.767 326.87 603.252 326.183 604.345 324.984C605.437 323.785 606.049 322.169 606.049 320.485Z" fill="#E6E6E6"/>
<path d="M606.049 387.354H580.603C580.603 389.054 581.228 390.685 582.34 391.887C583.451 393.089 584.959 393.764 586.531 393.764H600.21C601.767 393.739 603.252 393.052 604.345 391.853C605.437 390.654 606.049 389.038 606.049 387.354Z" fill="#E6E6E6"/>
<path d="M606.049 454.272H580.603C580.603 455.972 581.228 457.602 582.34 458.804C583.451 460.006 584.959 460.682 586.531 460.682H600.21C601.767 460.656 603.252 459.97 604.345 458.771C605.437 457.571 606.049 455.955 606.049 454.272Z" fill="#E6E6E6"/>
<path d="M657.845 524.634V246.197H625.597V524.634H657.845Z" fill="#F5F5F5"/>
<path d="M617.49 190.593H598.639V246.197H617.49V190.593Z" fill="#E0E0E0"/>
<path d="M539.448 246.197H611.355L622.055 156.221H550.148L539.448 246.197Z" fill="#E6E6E6"/>
<path d="M531.238 246.197H609.517L620.232 156.221H541.938L531.238 246.197Z" fill="#F0F0F0"/>
<path d="M603.811 239.114L612.822 163.303H547.658L538.633 239.114H603.811Z" fill="white"/>
<path d="M587.176 214.399C594.848 206.62 595.938 194.4 589.612 187.105C583.285 179.811 571.937 180.203 564.265 187.982C556.593 195.761 555.502 207.981 561.829 215.276C568.155 222.571 579.504 222.178 587.176 214.399Z" fill="#E6E6E6"/>
<path d="M267.353 524.634H468.46L468.46 65.0745H267.353L267.353 524.634Z" fill="#E6E6E6"/>
<path d="M262.877 524.634H463.984L463.984 65.0745H262.877L262.877 524.634Z" fill="#F5F5F5"/>
<path d="M455.967 514.892V74.8171L270.909 74.8171V514.892H455.967Z" fill="white"/>
<path d="M274.289 514.892V74.8171H270.91V514.892H274.289Z" fill="#E6E6E6"/>
<path d="M266.212 217.545L460.68 217.545V204.47L266.212 204.47V217.545Z" fill="#F5F5F5"/>
<path d="M200.233 512.184H228.258L228.258 315.678H200.233L200.233 512.184Z" fill="#F0F0F0"/>
<path d="M84.6518 524.634H222.878V512.183H84.6518V524.634Z" fill="#F0F0F0"/>
<path d="M200.233 315.678H79.2722V512.184H200.233V315.678Z" fill="#F5F5F5"/>
<path d="M189.207 339.859H90.2834V404.308H189.207V339.859Z" fill="#F0F0F0"/>
<path d="M189.207 423.553H90.2834V488.003H189.207V423.553Z" fill="#F0F0F0"/>
<path d="M110.35 383.445V360.754C110.35 358.754 108.85 357.133 107 357.133H105.518C103.668 357.133 102.169 358.754 102.169 360.754V383.445C102.169 385.445 103.668 387.066 105.518 387.066H107C108.85 387.066 110.35 385.445 110.35 383.445Z" fill="#F5F5F5"/>
<path d="M110.335 467.123V444.433C110.335 442.433 108.835 440.812 106.985 440.812H105.503C103.654 440.812 102.154 442.433 102.154 444.433V467.123C102.154 469.123 103.654 470.745 105.503 470.745H106.985C108.835 470.745 110.335 469.123 110.335 467.123Z" fill="#F5F5F5"/>
<path d="M199.67 204.678C196.543 206.376 188.021 204.55 190.852 210.783C192.492 214.04 194.444 217.101 196.676 219.917C199.848 224.147 199.255 228.746 195.505 230.413C194.689 230.726 193.97 231.281 193.431 232.015C191.711 234.691 195.787 238.281 197.788 240.957C199.788 243.633 200.589 246.261 199.121 248.264C197.654 250.267 194.083 249.642 191.385 250.315C184.879 251.917 191.563 261.532 190.882 266.579C190.407 269.977 187.843 270.938 184.376 271.387C181.545 271.771 177.766 272.044 177.603 275.184C177.469 277.909 180.745 280.985 181.604 283.838C182.014 285.067 182.17 286.379 182.06 287.68C181.95 288.981 181.577 290.241 180.967 291.369C180.393 292.318 179.644 293.127 178.766 293.748C177.889 294.368 176.903 294.786 175.869 294.974C172.653 295.712 167.792 294.974 167.555 298.868C167.451 300.615 168.577 302.169 167.792 303.788C167.365 304.461 166.807 305.026 166.156 305.441C165.506 305.856 164.779 306.112 164.028 306.191C160.948 306.699 157.811 306.639 154.75 306.015C150.971 305.262 145.399 301.657 147.444 298.195C147.8 297.694 148.247 297.275 148.756 296.964C149.265 296.653 149.827 296.456 150.408 296.385C151.312 296.176 153.95 296.481 154.291 295.824C154.632 295.167 153.728 292.619 153.683 291.689C153.594 289.136 153.966 286.589 154.78 284.19C155.826 281.058 157.49 278.209 159.656 275.841C160.56 274.864 161.983 274.143 162.16 272.717C162.155 271.111 161.63 269.558 160.678 268.326C159.196 266.115 156.988 264.016 156.232 261.66C154.958 257.974 158.04 256.853 160.886 255.955C163.479 255.202 166.814 254.225 165.999 250.828C165.361 248.376 162.516 246.373 161.656 243.985C160.501 240.78 163.302 240.668 165.302 239.514C167.911 238.024 168.563 235.38 167.629 232.015C166.147 226.487 156.677 218.667 161.479 215.061C162.709 214.148 163.835 213.844 164.576 212.466C165.317 211.087 165.465 209.165 166.488 207.835C168.103 205.719 171.453 205.367 173.201 203.396C176.788 199.374 169.037 192.179 176.165 190.576C177.672 190.377 179.101 189.74 180.3 188.734C180.952 188.077 181.471 184.92 182.197 184.695C185.443 183.718 191.296 190.528 193.134 192.627C195.15 195.111 203.434 202.643 199.67 204.678Z" fill="#E0E0E0"/>
<path d="M144.021 298.564C145.947 294.702 154.395 290.856 148.778 286.386C145.764 284.169 142.521 282.341 139.115 280.937C134.225 278.726 132.491 273.63 134.966 269.416C135.546 268.53 135.908 267.499 136.018 266.419C136.226 262.526 130.846 261.612 127.763 260.202C124.681 258.792 122.65 256.645 122.976 253.6C123.317 250.251 126.726 248.793 128.771 246.309C133.721 240.3 123.021 234.868 121.168 229.307C119.909 225.51 121.687 222.898 124.518 219.997C126.815 217.69 130.016 214.869 128.593 211.552C127.378 208.668 122.962 207.723 120.798 205.367C119.793 204.311 118.995 203.048 118.45 201.653C117.905 200.257 117.625 198.758 117.626 197.243C117.662 194.585 118.632 192.041 120.339 190.128C122.813 187.212 127.482 184.728 125.748 180.513C124.962 178.655 123.199 177.821 123.095 175.706C123.128 174.76 123.336 173.831 123.705 172.973C124.074 172.114 124.597 171.344 125.244 170.707C127.64 168.169 130.442 166.122 133.513 164.665C137.219 162.903 143.888 162.839 143.888 167.758C143.772 169.214 143.172 170.575 142.198 171.588C141.501 172.405 139.027 173.847 139.056 174.793C139.086 175.738 141.146 177.693 141.635 178.623C143.003 181.229 143.931 184.078 144.377 187.035C145.012 190.953 144.956 194.966 144.214 198.861C143.902 200.464 142.998 202.162 143.547 203.749C144.318 205.316 145.578 206.537 147.103 207.194C149.46 208.476 152.483 209.117 154.365 210.992C157.329 213.924 155.18 217.193 153.076 219.965C151.164 222.481 148.63 225.766 151.105 228.65C152.883 230.733 156.381 230.862 158.322 232.736C160.916 235.252 158.515 237.255 157.314 239.771C155.832 242.976 156.485 246.181 158.974 249.001C163.094 253.632 175.276 255.411 172.786 262.237C172.164 264 171.305 265.073 171.305 266.964C171.305 268.855 172.149 270.954 171.912 273.005C171.527 276.21 168.755 278.87 168.177 282.059C167.007 288.581 177.381 290.696 171.986 297.186C170.726 298.472 169.788 300.081 169.259 301.865C169.007 302.955 170.104 306.544 169.571 307.265C167.199 310.47 158.663 307.41 156.01 306.48C152.75 305.31 141.724 303.163 144.021 298.564Z" fill="#F5F5F5"/>
<path d="M122.443 289.863C122.443 289.863 123.465 315.678 162.546 315.678C201.626 315.678 202.664 289.863 202.664 289.863H122.443Z" fill="#F0F0F0"/>
<path d="M370.5 597C529.196 597 657.845 588.879 657.845 578.86C657.845 568.842 529.196 560.721 370.5 560.721C211.804 560.721 83.155 568.842 83.155 578.86C83.155 588.879 211.804 597 370.5 597Z" fill="#F5F5F5"/>
<path d="M464.666 565.673L452.781 565.48L450.039 535.643L461.94 535.835L464.666 565.673Z" fill="#FFB573"/>
<path d="M525.858 565.72H513.972L504.71 535.931H516.596L525.858 565.72Z" fill="#FFB573"/>
<path d="M512.387 564.23H526.881C527.118 564.231 527.348 564.318 527.534 564.478C527.72 564.638 527.85 564.861 527.903 565.112L530.245 576.553C530.304 576.831 530.303 577.119 530.243 577.397C530.183 577.674 530.064 577.933 529.896 578.153C529.729 578.373 529.517 578.548 529.276 578.665C529.036 578.782 528.774 578.838 528.511 578.828C523.842 578.748 520.434 578.444 514.565 578.444C510.949 578.444 500.042 578.86 495.047 578.86C490.053 578.86 489.401 573.524 491.446 573.028C500.605 570.864 507.511 567.884 510.445 565.015C510.984 564.51 511.673 564.231 512.387 564.23Z" fill="#263238"/>
<path d="M452.885 564.054L465.867 564.278C466.102 564.28 466.331 564.368 466.514 564.528C466.697 564.688 466.824 564.911 466.875 565.16L469.053 576.633C469.11 576.91 469.107 577.196 469.046 577.472C468.984 577.747 468.865 578.004 468.698 578.222C468.53 578.44 468.319 578.613 468.08 578.73C467.841 578.846 467.581 578.902 467.319 578.892C462.621 578.732 455.863 578.316 449.965 578.219C443.089 578.107 437.131 578.412 429.054 578.219C424.178 578.139 422.904 572.787 424.949 572.339C434.285 570.287 441.888 570.175 450.009 564.951C450.874 564.373 451.868 564.062 452.885 564.054Z" fill="#263238"/>
<path d="M460.191 182.404C456.428 191.434 452.238 200.248 447.638 208.812C445.341 213.09 442.94 217.337 440.332 221.503C437.736 225.774 434.926 229.887 431.914 233.826L430.743 235.332L430.15 236.085C429.943 236.342 429.81 236.534 429.395 236.999C427.696 239.066 425.516 240.604 423.081 241.453C421.573 241.964 419.986 242.144 418.413 241.982C417.026 241.854 415.668 241.475 414.397 240.86C412.565 239.961 410.894 238.718 409.462 237.191C407.431 235 405.686 232.52 404.275 229.82C403.037 227.504 401.914 225.118 400.911 222.673C397.25 213.42 394.508 203.772 392.73 193.893L401.266 191.025C403.089 195.223 404.971 199.566 406.942 203.7C408.913 207.834 410.929 211.969 413.107 215.766C414.13 217.619 415.243 219.411 416.442 221.135C417.383 222.534 418.478 223.804 419.702 224.916C420.147 225.285 420.488 225.365 420.31 225.205C420.061 225.06 419.79 224.968 419.51 224.932C419.048 224.875 418.58 224.913 418.131 225.045C417.242 225.349 417.109 225.573 417.213 225.365L418.858 222.913C423.671 215.361 428.056 207.5 431.988 199.374C436.064 191.185 440.035 182.628 443.755 174.344L460.191 182.404Z" fill="#FFB573"/>
<path d="M465.141 174.344C468.342 186.138 445.771 218.298 445.771 218.298L422.993 202.466C427.285 192.27 432.577 182.6 438.776 173.623C448.098 160.691 461.614 161.396 465.141 174.344Z" fill="#83C5BE"/>
<path opacity="0.2" d="M465.141 174.344C468.342 186.138 445.771 218.298 445.771 218.298L422.993 202.466C427.285 192.27 432.577 182.6 438.776 173.623C448.098 160.691 461.614 161.396 465.141 174.344Z" fill="black"/>
<path opacity="0.2" d="M451.254 188.189C446.571 190.352 439.68 202.611 436.093 211.584L445.756 218.298C451.154 210.494 456.009 202.267 460.279 193.685C457.227 190.064 453.729 187.051 451.254 188.189Z" fill="black"/>
<path d="M401.059 195.64L404.023 181.138L390.492 181.026C390.492 181.026 386.876 191.922 394.153 197.05L401.059 195.64Z" fill="#FFB573"/>
<path d="M402.437 167.55L391.589 171.764L390.448 181.026L403.979 181.138L402.437 167.55Z" fill="#FFB573"/>
<path opacity="0.2" d="M450.054 535.643L451.462 551.026L463.347 551.235L461.954 535.851L450.054 535.643Z" fill="black"/>
<path opacity="0.2" d="M516.596 535.947H504.71L509.482 551.299H521.382L516.596 535.947Z" fill="black"/>
<path d="M518.166 169.12C505.347 217.978 507.941 269.832 506.785 280.328C497.478 279.607 462.428 276.771 443.325 275.232C434.997 202.018 451.654 164.409 451.654 164.409C451.654 164.409 455.745 163.559 461.287 162.934C463.021 162.742 464.903 162.582 466.86 162.47C467.941 162.47 469.038 162.358 470.15 162.342C479.171 162.508 488.177 163.23 497.122 164.505C498.812 164.729 500.531 165.018 502.205 165.306C503.88 165.594 505.258 165.899 506.651 166.203C513.172 167.598 518.166 169.12 518.166 169.12Z" fill="#83C5BE"/>
<path opacity="0.2" d="M518.166 169.12C505.347 217.978 507.941 269.832 506.785 280.328C497.478 279.607 462.428 276.771 443.325 275.232C434.997 202.018 451.654 164.409 451.654 164.409C451.654 164.409 455.745 163.559 461.287 162.934C463.021 162.742 464.903 162.582 466.86 162.47C467.941 162.47 469.038 162.358 470.15 162.342C479.171 162.508 488.177 163.23 497.122 164.505C498.812 164.729 500.531 165.018 502.205 165.306C503.88 165.594 505.258 165.899 506.651 166.203C513.172 167.598 518.166 169.12 518.166 169.12Z" fill="black"/>
<path opacity="0.2" d="M504.621 190.08C503.48 194.807 504.784 216.375 509.349 221.695C509.971 214.789 510.831 207.578 511.898 200.207L504.621 190.08Z" fill="black"/>
<path d="M496.707 131.399C494.365 140.645 491.476 157.711 497.122 164.457C492.054 169.152 485.488 174.504 475.159 174.072C464.829 173.639 467.141 166.059 470.15 162.294C479.99 160.563 480.286 152.775 479.042 145.356L496.707 131.399Z" fill="#FFB573"/>
<path d="M496.174 161.845C496.174 161.845 491.905 169.456 474.744 174.088C477.589 176.94 478.968 183.702 478.968 183.702C478.968 183.702 501.361 177.869 500.679 164.249C499.312 163.18 497.789 162.368 496.174 161.845Z" fill="#263238"/>
<path d="M468.638 181.955C468.638 181.955 470.891 176.091 474.744 174.087C472.951 172.084 470.298 166.075 471.869 161.573C470.54 161.458 469.202 161.55 467.897 161.845C467.897 161.845 461.11 171.091 468.638 181.955Z" fill="#263238"/>
<path d="M474.003 182.132C473.81 183.382 473.129 184.311 472.521 184.183C471.913 184.055 471.543 182.949 471.75 181.699C471.958 180.449 472.64 179.504 473.232 179.632C473.825 179.76 474.24 180.866 474.003 182.132Z" fill="#263238"/>
<path d="M472.995 189.343C472.891 190.625 472.299 191.602 471.661 191.538C471.024 191.474 470.594 190.4 470.698 189.134C470.802 187.868 471.395 186.875 472.032 186.939C472.669 187.003 473.099 188.077 472.995 189.343Z" fill="#263238"/>
<path opacity="0.2" d="M489.534 137.151L479.16 145.404C479.471 147.13 479.63 148.885 479.635 150.644C483.384 150.355 488.764 146.381 489.445 142.231C489.747 140.556 489.777 138.837 489.534 137.151Z" fill="black"/>
<path d="M472.906 96.4818C463.659 96.2574 461.791 120.422 467.794 124.636C473.796 128.851 490.216 96.8824 472.906 96.4818Z" fill="#263238"/>
<path d="M498.708 117.41C497.122 130.053 496.781 137.552 490.394 143.593C480.79 152.679 466.682 145.692 464.755 132.793C463.021 121.175 465.911 102.443 477.767 98.3087C480.376 97.3822 483.161 97.1928 485.856 97.7585C488.552 98.3242 491.068 99.6262 493.167 101.541C495.266 103.455 496.877 105.918 497.847 108.696C498.817 111.473 499.113 114.473 498.708 117.41Z" fill="#FFB573"/>
<path d="M497.033 129.796C491.105 133.177 484.258 98.1804 499.997 100.007C519.767 102.283 508.934 123.05 497.033 129.796Z" fill="#263238"/>
<path d="M470.639 99.9271C470.639 107.763 494.158 115.551 502.22 112.875C510.282 110.199 512.312 103.26 507.985 98.4529C500.664 90.1683 470.639 84.5759 470.639 99.9271Z" fill="#263238"/>
<path d="M471.587 100.953C472.131 103.545 473.302 105.934 474.981 107.875C472.877 107.747 470.787 104.526 470.12 102.651C469.453 100.776 471.587 100.953 471.587 100.953Z" fill="#263238"/>
<path d="M503.05 131.848C502.18 133.131 501.084 134.217 499.825 135.042C498.566 135.866 497.169 136.415 495.714 136.655C491.817 137.264 490.379 133.354 491.891 129.668C493.254 126.351 496.915 122.041 500.62 123.13C504.325 124.22 505.184 128.659 503.05 131.848Z" fill="#FFB573"/>
<path d="M447.045 548.03L467.186 548.366C467.186 548.366 460.458 462.332 462.28 422.303C462.829 410.125 465.096 393.091 468.06 374.839C471.824 351.828 473.633 342.663 478.434 313.595C481.902 292.859 484.985 278.646 484.985 278.646L443.266 275.281C443.266 275.281 425.631 378.925 426.046 418.233C426.46 458.983 447.045 548.03 447.045 548.03Z" fill="#263238"/>
<path opacity="0.2" d="M470.357 306.063C462.858 326.254 462.71 373.558 466.163 386.874C466.756 382.932 467.393 378.862 468.06 374.792C471.824 351.781 473.632 342.615 478.434 313.547C478.523 312.97 478.627 312.409 478.716 311.848C476.259 309.413 473.431 307.456 470.357 306.063Z" fill="black"/>
<path d="M465.837 277.043C465.837 277.043 469.512 385.512 472.313 423.073C475.366 464.223 503.88 548.318 503.88 548.318H525.665C525.665 548.318 511.127 471.402 506.666 431.341C501.583 385.832 506.755 280.296 506.755 280.296L465.837 277.043Z" fill="#263238"/>
<path d="M501.287 548.831H526.94V540.546L498.263 540.001L501.287 548.831Z" fill="#83C5BE"/>
<path d="M444.511 548.446L468.505 548.847L468.623 540.466L441.799 539.569L444.511 548.446Z" fill="#83C5BE"/>
<path d="M480.642 119.525C480.568 120.566 480.005 121.367 479.383 121.303C478.76 121.239 478.301 120.374 478.375 119.348C478.449 118.323 479.012 117.522 479.635 117.57C480.257 117.618 480.717 118.579 480.642 119.525Z" fill="#263238"/>
<path d="M469.794 118.66C469.794 119.701 469.157 120.486 468.535 120.438C467.912 120.39 467.468 119.509 467.527 118.483C467.586 117.458 468.164 116.64 468.801 116.689C469.439 116.737 469.898 117.618 469.794 118.66Z" fill="#263238"/>
<path d="M473.232 119.445C471.87 122.518 470.124 125.376 468.045 127.937C468.657 128.485 469.371 128.883 470.139 129.104C470.906 129.325 471.708 129.365 472.491 129.219L473.232 119.445Z" fill="#ED893E"/>
<path d="M476.404 132.312C477.479 132.266 478.535 131.98 479.504 131.473C480.473 130.966 481.335 130.248 482.035 129.364C482.062 129.335 482.083 129.302 482.097 129.264C482.111 129.227 482.119 129.188 482.119 129.147C482.119 129.107 482.111 129.067 482.097 129.03C482.083 128.993 482.062 128.959 482.035 128.931C481.981 128.877 481.909 128.847 481.835 128.847C481.761 128.847 481.69 128.877 481.635 128.931C480.841 129.895 479.846 130.643 478.734 131.114C477.621 131.585 476.422 131.764 475.233 131.639C475.161 131.634 475.089 131.66 475.034 131.711C474.979 131.762 474.944 131.834 474.937 131.911C474.932 131.951 474.936 131.992 474.946 132.031C474.957 132.069 474.974 132.105 474.998 132.137C475.021 132.168 475.05 132.194 475.083 132.213C475.115 132.232 475.151 132.244 475.188 132.248C475.592 132.299 475.998 132.321 476.404 132.312Z" fill="#263238"/>
<path d="M484.243 116.015C484.339 116.013 484.432 115.98 484.51 115.919C484.572 115.877 484.626 115.822 484.668 115.757C484.71 115.691 484.74 115.618 484.755 115.54C484.77 115.462 484.771 115.382 484.757 115.304C484.743 115.226 484.714 115.152 484.673 115.086C484.203 114.253 483.553 113.555 482.778 113.052C482.004 112.55 481.129 112.258 480.227 112.202C480.078 112.202 479.935 112.266 479.829 112.38C479.723 112.494 479.664 112.649 479.664 112.811C479.664 112.972 479.723 113.127 479.829 113.241C479.935 113.355 480.078 113.42 480.227 113.42C480.932 113.482 481.613 113.725 482.214 114.129C482.814 114.533 483.317 115.087 483.68 115.743C483.739 115.843 483.824 115.922 483.924 115.97C484.024 116.018 484.135 116.034 484.243 116.015Z" fill="#263238"/>
<path d="M465.437 114.269C465.53 114.261 465.621 114.229 465.7 114.176C465.78 114.123 465.847 114.051 465.896 113.964C466.232 113.287 466.712 112.707 467.297 112.272C467.883 111.837 468.556 111.56 469.26 111.465C469.334 111.461 469.406 111.441 469.472 111.406C469.538 111.371 469.597 111.323 469.645 111.263C469.694 111.203 469.731 111.133 469.754 111.058C469.777 110.982 469.785 110.903 469.779 110.824C469.777 110.744 469.761 110.666 469.73 110.594C469.7 110.522 469.657 110.457 469.603 110.403C469.549 110.349 469.486 110.308 469.417 110.281C469.348 110.254 469.274 110.242 469.201 110.247C468.312 110.359 467.46 110.698 466.716 111.236C465.971 111.774 465.355 112.494 464.918 113.339C464.881 113.409 464.857 113.485 464.847 113.565C464.838 113.644 464.843 113.725 464.862 113.803C464.881 113.88 464.914 113.953 464.96 114.016C465.005 114.08 465.061 114.133 465.126 114.173C465.22 114.234 465.327 114.267 465.437 114.269Z" fill="#263238"/>
<path d="M508.445 566.49C509.495 566.459 510.538 566.303 511.557 566.025C511.613 566.01 511.664 565.978 511.703 565.933C511.743 565.887 511.769 565.83 511.779 565.769C511.784 565.71 511.774 565.65 511.75 565.597C511.727 565.544 511.691 565.498 511.646 565.464C511.216 565.176 507.378 562.628 506.059 563.349C505.913 563.432 505.79 563.557 505.704 563.709C505.618 563.861 505.572 564.036 505.57 564.214C505.542 564.513 505.582 564.815 505.685 565.094C505.788 565.372 505.952 565.62 506.162 565.817C506.832 566.311 507.636 566.548 508.445 566.49ZM510.742 565.592C508.726 566.025 507.17 565.945 506.518 565.352C506.375 565.22 506.264 565.051 506.197 564.86C506.13 564.67 506.107 564.464 506.133 564.262C506.128 564.189 506.143 564.116 506.174 564.051C506.205 563.986 506.253 563.932 506.311 563.894C506.992 563.509 509.186 564.615 510.742 565.656V565.592Z" fill="#83C5BE"/>
<path d="M511.498 566.025C511.546 566.039 511.597 566.039 511.646 566.025C511.687 565.995 511.722 565.955 511.745 565.907C511.768 565.86 511.78 565.806 511.779 565.752C511.779 565.592 511.483 561.875 510.105 560.657C509.943 560.502 509.751 560.387 509.544 560.321C509.336 560.254 509.118 560.238 508.904 560.272C508.692 560.268 508.486 560.344 508.32 560.487C508.155 560.631 508.042 560.833 508 561.057C507.748 562.5 510.134 565.32 511.364 566.041L511.498 566.025ZM509.097 560.849C509.334 560.848 509.562 560.945 509.734 561.121C510.572 562.276 511.063 563.679 511.142 565.144C509.927 564.134 508.4 561.939 508.549 561.17C508.549 561.089 508.549 560.897 508.963 560.849H509.097Z" fill="#83C5BE"/>
<path d="M451.684 565.753C451.735 565.733 451.779 565.699 451.813 565.653C451.847 565.608 451.869 565.554 451.877 565.496C451.883 565.435 451.873 565.374 451.846 565.319C451.82 565.265 451.779 565.22 451.729 565.192C451.195 564.871 446.453 562.179 445 563.013C444.864 563.094 444.748 563.212 444.665 563.355C444.582 563.498 444.534 563.661 444.526 563.83C444.492 564.104 444.519 564.383 444.607 564.642C444.695 564.902 444.84 565.135 445.03 565.32C446.305 566.586 449.728 566.137 451.655 565.753H451.684ZM445.371 563.509C446.26 563.189 448.839 564.294 450.721 565.304C448.083 565.737 446.127 565.576 445.4 564.871C445.277 564.746 445.183 564.59 445.126 564.417C445.07 564.244 445.052 564.06 445.074 563.878C445.075 563.81 445.093 563.744 445.127 563.687C445.161 563.63 445.21 563.585 445.267 563.557L445.371 563.509Z" fill="#83C5BE"/>
<path d="M451.684 565.753H451.758C451.801 565.725 451.834 565.684 451.855 565.636C451.877 565.587 451.884 565.533 451.877 565.48C451.877 565.336 451.595 561.859 450.098 560.497C449.898 560.303 449.663 560.155 449.409 560.061C449.154 559.967 448.885 559.93 448.616 559.952C447.831 559.952 447.609 560.432 447.549 560.785C447.312 562.227 450.113 565.063 451.536 565.785C451.587 565.786 451.638 565.775 451.684 565.753ZM448.305 560.561H448.602C448.808 560.54 449.016 560.566 449.213 560.638C449.41 560.71 449.59 560.825 449.743 560.977C450.605 562.111 451.122 563.504 451.225 564.967C449.743 563.99 447.875 561.762 448.009 560.897C448.053 560.849 448.068 560.641 448.305 560.561Z" fill="#83C5BE"/>
<path d="M521.22 177.132C525.369 186.138 529.089 195.143 532.512 204.373C534.246 208.988 535.847 213.683 537.418 218.411C538.189 220.798 538.9 223.218 539.641 225.589L540.174 227.4L540.752 229.483C541.167 230.91 541.404 232.336 541.716 233.746C543.35 244.536 542.886 255.577 540.352 266.163C539.254 271.188 537.863 276.133 536.188 280.969C535.343 283.373 534.439 285.777 533.476 288.068C532.512 290.36 531.534 292.667 530.334 295.071L522.138 291.225C523.28 286.85 524.436 282.123 525.251 277.524C526.066 272.925 526.822 268.278 527.296 263.695C527.764 259.195 527.932 254.665 527.8 250.139C527.72 245.901 527.173 241.689 526.169 237.592C525.888 236.646 525.666 235.653 525.325 234.755C525.147 234.291 525.043 233.906 524.821 233.345L524.198 231.743C523.368 229.547 522.464 227.352 521.605 225.157C519.871 220.734 517.989 216.359 516.181 211.953L504.992 185.625L521.22 177.132Z" fill="#FFB573"/>
<path d="M518.167 169.12C529.015 172.806 539.685 212.594 539.685 212.594L514.58 224.468C514.58 224.468 506.459 205.239 501.776 190.176C496.692 173.751 505.006 164.665 518.167 169.12Z" fill="#83C5BE"/>
<path opacity="0.2" d="M518.167 169.12C529.015 172.806 539.685 212.594 539.685 212.594L514.58 224.468C514.58 224.468 506.459 205.239 501.776 190.176C496.692 173.751 505.006 164.665 518.167 169.12Z" fill="black"/>
<path d="M522.805 289.062L516.951 300.487L530.749 304.365C530.749 304.365 534.913 293.292 529.993 289.767L522.805 289.062Z" fill="#FFB573"/>
<path d="M515.929 313.45L528.6 314.588L530.749 304.365L516.952 300.487L515.929 313.45Z" fill="#FFB573"/>
<path opacity="0.19" d="M439.784 375.4H126.222L148.333 36.3748H461.895L439.784 375.4Z" fill="#83C5BE"/>
<path opacity="0.2" d="M196.869 375.4H151.772L264.122 36.3748H309.219L196.869 375.4Z" fill="white"/>
<path opacity="0.2" d="M306.404 375.4H206.932L319.282 36.3748H418.754L306.404 375.4Z" fill="white"/>
<path d="M149.163 94.2706L139.975 93.5655L144.036 31.3914H201.552V41.3585H152.616L149.163 94.2706Z" fill="#83C5BE"/>
<path d="M179.441 380.384H121.272L125.377 317.521L134.566 318.226L131.157 370.417H179.441V380.384Z" fill="#83C5BE"/>
<path d="M462.725 94.2706L453.551 93.5655L456.945 41.3585H408.662V31.3914H466.83L462.725 94.2706Z" fill="#83C5BE"/>
<path d="M444.067 380.384H386.55V370.417H435.486L438.939 317.521L448.127 318.226L444.067 380.384Z" fill="#83C5BE"/>
<g opacity="0.3">
<path d="M287.879 325.404C287.606 325.398 287.338 325.327 287.093 325.196C287.004 325.196 284.826 323.85 281.165 321.414C279.683 320.405 277.816 319.171 275.786 317.777C269.339 313.242 263.129 308.467 257.305 303.579C255.823 302.394 254.489 301.176 253.052 299.926C247.687 295.119 242.678 290.408 238.321 285.728C237.194 284.511 236.083 283.293 234.971 282.043C230.925 277.538 227.124 272.781 223.59 267.797C222.73 266.595 221.9 265.362 221.085 264.112C218.071 259.569 215.381 254.786 213.038 249.802C212.475 248.6 211.911 247.334 211.393 246.068C209.447 241.434 207.928 236.603 206.858 231.647C206.591 230.509 206.354 229.275 206.146 227.897C205.983 226.999 205.85 226.054 205.746 225.125C205.287 221.455 204.902 217.721 204.531 213.683C204.412 212.482 204.309 211.264 204.205 210.062C203.82 205.255 203.494 200.559 203.257 195.88V195.496C203.257 194.438 203.138 193.381 203.094 192.291C202.886 187.676 202.738 182.917 202.649 178.142V174.504C202.649 169.456 202.649 164.697 202.649 160.355C202.649 159.137 202.649 157.919 202.723 156.717C202.827 151.493 202.99 146.734 203.182 142.568V142.295C203.182 141.141 203.271 140.02 203.331 138.914C203.597 133.754 203.909 128.867 204.235 124.765C204.338 123.371 204.427 122.185 204.531 121.127C204.872 117.089 205.124 114.83 205.124 114.83C205.154 114.416 205.32 114.027 205.592 113.733C205.863 113.44 206.223 113.26 206.606 113.227C206.873 113.227 234.216 110.936 263.337 105.391C269.265 104.27 274.985 103.052 280.409 101.786C288.397 99.895 295.704 97.8439 302.15 95.6807C302.473 95.569 302.82 95.569 303.143 95.6807C309.294 97.86 316.333 99.9111 324.069 101.786C329.33 103.068 334.903 104.27 340.668 105.391C369.063 110.936 396.109 113.211 396.376 113.227C396.789 113.264 397.173 113.471 397.448 113.805C397.724 114.139 397.871 114.574 397.858 115.022C397.858 115.022 397.858 117.265 397.636 121.319C397.636 122.393 397.532 123.611 397.458 124.957C397.236 129.075 396.909 133.963 396.509 139.106C396.42 140.132 396.331 141.158 396.243 142.231V142.76C395.902 146.942 395.427 151.701 394.864 156.893C394.731 158.127 394.598 159.329 394.449 160.547C393.945 164.905 393.338 169.665 392.626 174.68L392.123 178.302C391.411 183.109 390.641 187.916 389.84 192.467C389.662 193.493 389.47 194.534 389.277 195.576L389.173 196.121C388.329 200.768 387.395 205.543 386.387 210.27L385.587 213.924C384.683 217.962 383.809 221.695 382.89 225.349C382.638 226.294 382.386 227.224 382.119 228.153C381.719 229.515 381.334 230.733 380.919 231.887C379.181 236.888 377.038 241.714 374.516 246.309C373.85 247.543 373.138 248.792 372.397 250.01C369.397 255 366.095 259.77 362.512 264.288C361.534 265.522 360.556 266.756 359.548 267.958C355.376 272.938 350.974 277.687 346.358 282.187C345.084 283.426 343.809 284.644 342.535 285.841C337.511 290.52 331.953 295.279 325.981 300.022C324.38 301.272 322.809 302.49 321.253 303.676C314.792 308.563 307.915 313.29 300.95 317.857C298.727 319.251 296.756 320.485 295.022 321.495C291.05 323.914 288.709 325.212 288.62 325.26C288.386 325.37 288.133 325.419 287.879 325.404ZM208.192 116.656C208.088 117.714 207.94 119.316 207.762 121.464C207.658 122.521 207.569 123.691 207.48 124.973C207.154 129.139 206.843 133.995 206.576 139.138C206.576 140.228 206.472 141.334 206.413 142.488V142.76C206.206 146.894 206.058 151.621 205.954 156.813C205.954 157.999 205.954 159.201 205.88 160.419C205.88 164.745 205.88 169.472 205.88 174.472V178.109C205.969 182.837 206.117 187.564 206.324 192.131C206.324 193.188 206.413 194.23 206.472 195.336V195.816C206.71 200.447 207.021 205.174 207.406 209.854C207.51 211.055 207.614 212.257 207.732 213.459C208.088 217.449 208.488 221.167 208.933 224.788C209.036 225.669 209.155 226.551 209.303 227.416C209.511 228.73 209.733 229.868 209.985 230.957C211.013 235.693 212.467 240.309 214.327 244.738C214.831 245.94 215.35 247.142 215.898 248.296C218.17 253.127 220.776 257.766 223.693 262.173C224.494 263.375 225.294 264.576 226.139 265.746C229.601 270.623 233.317 275.282 237.268 279.703C238.365 280.921 239.462 282.123 240.573 283.309C244.901 287.908 249.777 292.603 255.067 297.282C256.549 298.516 257.883 299.718 259.276 300.903C265.011 305.711 271.132 310.438 277.505 314.909C279.505 316.287 281.299 317.505 282.825 318.498C285.181 320.1 286.93 321.158 287.864 321.703C288.857 321.142 290.828 320.1 293.377 318.498C295.052 317.488 296.993 316.271 299.186 314.877C306.122 310.406 312.88 305.695 319.267 300.855C320.749 299.686 322.365 298.484 323.951 297.234C329.879 292.555 335.347 287.86 340.253 283.245C341.512 282.059 342.772 280.857 344.017 279.623C348.559 275.205 352.892 270.541 356.999 265.65C357.992 264.464 358.955 263.278 359.963 262.077C363.458 257.678 366.676 253.031 369.596 248.168C370.322 246.982 371.078 245.78 371.641 244.594C374.103 240.187 376.201 235.554 377.91 230.749C378.31 229.643 378.681 228.49 379.051 227.192C379.318 226.31 379.555 225.413 379.778 224.532C380.696 220.91 381.571 217.209 382.46 213.203C382.742 212.001 382.993 210.799 383.26 209.597C384.253 204.902 385.187 200.175 386.017 195.56L386.121 194.999C386.313 193.973 386.491 192.948 386.669 191.922C387.469 187.371 388.24 182.644 388.936 177.869L389.455 174.264C390.152 169.28 390.759 164.553 391.263 160.21C391.411 159.009 391.53 157.823 391.663 156.637C392.226 151.445 392.701 146.718 393.041 142.552V142.023C393.13 140.965 393.219 139.924 393.293 138.914C393.694 133.818 394.02 128.963 394.227 124.877C394.301 123.531 394.36 122.329 394.42 121.255C394.494 119.3 394.553 117.762 394.583 116.721C388.418 116.144 364.765 113.788 340.104 108.981C334.295 107.843 328.678 106.625 323.373 105.343C315.74 103.484 308.775 101.465 302.625 99.3182C296.208 101.465 288.975 103.484 281.091 105.343C275.637 106.625 269.858 107.843 263.9 108.981C238.306 113.772 214.075 116.128 208.192 116.656Z" fill="#83C5BE"/>
<path d="M310.771 187.207C318.774 178.854 319.423 165.543 312.22 157.475C305.018 149.408 292.691 149.64 284.689 157.993C276.686 166.346 276.037 179.658 283.24 187.725C290.442 195.792 302.768 195.56 310.771 187.207Z" fill="#83C5BE"/>
<path d="M302.002 179.936H297.245H292.502L279.075 247.655H306.596L302.002 179.936Z" fill="#83C5BE"/>
<g opacity="0.2">
<path d="M340.371 107.17H263.618C269.309 106.081 275.074 104.879 280.75 103.533H323.728C329.227 104.879 334.828 106.081 340.371 107.17Z" fill="#83C5BE"/>
<path d="M395.843 124.893H205.85C205.939 123.547 206.028 122.345 206.132 121.256H396.02C395.976 122.345 395.917 123.547 395.843 124.893Z" fill="#83C5BE"/>
<path d="M394.894 138.978C394.805 140.164 394.701 141.382 394.598 142.632H204.783C204.783 141.382 204.887 140.164 204.946 138.978H394.894Z" fill="#83C5BE"/>
<path d="M393.219 156.717C393.086 157.919 392.953 159.137 392.804 160.355H204.25C204.25 159.137 204.249 157.919 204.324 156.717H393.219Z" fill="#83C5BE"/>
<path d="M390.996 174.456C390.818 175.658 390.655 176.86 390.477 178.078H204.264C204.264 176.86 204.264 175.658 204.264 174.456H390.996Z" fill="#83C5BE"/>
<path d="M388.284 192.179L387.617 195.816H204.887C204.887 194.598 204.753 193.381 204.709 192.179H388.284Z" fill="#83C5BE"/>
<path d="M384.772 209.918L383.972 213.539H206.132C206.013 212.337 205.909 211.12 205.806 209.918H384.772Z" fill="#83C5BE"/>
<path d="M380.533 227.641C380.178 228.858 379.792 230.076 379.363 231.278H208.444C208.162 230.076 207.94 228.858 207.747 227.641H380.533Z" fill="#83C5BE"/>
<path d="M373.079 245.364C372.427 246.581 371.715 247.815 371.004 249.001H214.49C213.927 247.815 213.393 246.581 212.889 245.364H373.079Z" fill="#83C5BE"/>
<path d="M361.238 263.102C360.275 264.32 359.311 265.538 358.274 266.724H224.894C224.034 265.538 223.219 264.32 222.419 263.102H361.238Z" fill="#83C5BE"/>
<path d="M345.202 280.825C343.943 282.059 342.683 283.277 341.409 284.463H239.462C238.35 283.277 237.239 282.059 236.142 280.825H345.202Z" fill="#83C5BE"/>
<path d="M324.958 298.548C323.358 299.798 321.802 301.016 320.246 302.186H258.313C256.92 301.016 255.512 299.798 254.074 298.548H324.958Z" fill="#83C5BE"/>
<path d="M300.061 316.287C297.853 317.681 295.896 318.899 294.222 319.908H282.025C280.543 318.899 278.675 317.681 276.66 316.287H300.061Z" fill="#83C5BE"/>
</g>
</g>
</svg>
