<svg width="28" height="28" viewBox="0 0 28 28" fill="none" xmlns="http://www.w3.org/2000/svg">
<path d="M27.1499 11.4229C27.097 11.1303 26.943 10.8657 26.7148 10.6751C26.4867 10.4845 26.1989 10.3801 25.9016 10.3801H13.9543C13.6178 10.3801 13.2951 10.5138 13.0572 10.7517C12.8193 10.9896 12.6857 11.3122 12.6857 11.6487V16.5555C12.6857 16.8919 12.8193 17.2146 13.0572 17.4525C13.2951 17.6904 13.6178 17.824 13.9543 17.824H18.9803C18.6224 18.4283 18.1318 18.9432 17.5456 19.3298C16.4733 20.0096 15.2235 20.3562 13.9543 20.3256C12.6383 20.3106 11.3604 19.8813 10.3024 19.0986C9.24437 18.3159 8.45991 17.2196 8.0605 15.9656V15.9631C7.6158 14.6608 7.6158 13.2478 8.0605 11.9455V11.943C8.46097 10.6897 9.24574 9.59427 10.3036 8.81193C11.3614 8.0296 12.6387 7.60006 13.9543 7.58418C14.6853 7.56749 15.4125 7.69527 16.0941 7.9602C16.7757 8.22512 17.3982 8.62198 17.9261 9.12803C18.1657 9.35755 18.4856 9.4841 18.8174 9.48055C19.1491 9.47699 19.4663 9.34361 19.7009 9.109L23.3391 5.47075C23.4596 5.35032 23.5547 5.20683 23.6186 5.04886C23.6824 4.89088 23.7138 4.72166 23.7109 4.55129C23.7079 4.38091 23.6707 4.21288 23.6013 4.05722C23.532 3.90156 23.432 3.76146 23.3074 3.64529C20.7756 1.27091 17.4251 -0.0346717 13.9543 0.000700416C11.3662 -0.0068644 8.82755 0.708732 6.62447 2.0668C4.42138 3.42488 2.64151 5.37141 1.48553 7.68694L1.48426 7.68947C0.503377 9.63206 -0.00514888 11.7787 3.93032e-05 13.9549C0.00403565 16.1304 0.512061 18.2754 1.48426 20.2216L1.48553 20.2229C2.64151 22.5384 4.42138 24.485 6.62447 25.843C8.82755 27.2011 11.3662 27.9167 13.9543 27.9091C17.3608 27.9949 20.6714 26.7755 23.2084 24.5005L23.2097 24.4992C24.5838 23.1759 25.6664 21.5802 26.3882 19.8142C27.1099 18.0483 27.4549 16.1511 27.401 14.2441C27.4016 13.2981 27.3176 12.3539 27.1499 11.4229ZM13.9543 2.53783C16.3278 2.51626 18.6451 3.26051 20.5622 4.66014L18.7177 6.50336C17.3195 5.53544 15.6547 5.02648 13.9543 5.04705C12.4019 5.05525 10.8797 5.47676 9.54416 6.26824C8.20867 7.05973 7.10808 8.19263 6.35555 9.55046L5.00072 8.50008L4.25861 7.92416C5.27921 6.27215 6.70646 4.90951 8.40395 3.96649C10.1014 3.02346 12.0124 2.53157 13.9543 2.53783ZM3.14608 17.6376C2.33529 15.2494 2.33529 12.6604 3.14608 10.2723L5.40666 12.0254C5.11743 13.2955 5.11743 14.6143 5.40666 15.8844L3.14608 17.6376ZM13.9543 25.372C12.0122 25.3785 10.101 24.8867 8.40323 23.9437C6.7055 23.0006 5.27805 21.6379 4.25734 19.9857L4.73813 19.6127L6.35682 18.3568C7.10891 19.7149 8.20916 20.8482 9.54444 21.6402C10.8797 22.4321 12.4018 22.8541 13.9543 22.8628C15.4075 22.8791 16.8442 22.5532 18.1481 21.9114L20.2933 23.577C18.4057 24.7922 16.1987 25.4172 13.9543 25.372ZM22.2329 21.8708L22.0008 21.6894L20.2539 20.3333C21.1707 19.3436 21.7867 18.1133 22.0299 16.7864C22.0638 16.6032 22.057 16.4149 22.0099 16.2347C21.9628 16.0546 21.8766 15.887 21.7575 15.7438C21.6384 15.6007 21.4892 15.4856 21.3205 15.4066C21.1519 15.3276 20.9679 15.2868 20.7817 15.2869H15.2228V12.9172H24.7992C24.8423 13.3553 24.8639 13.7976 24.8639 14.2441C24.9381 17.0205 24.0034 19.7309 22.2329 21.8708Z" fill="#F1FAEE"/>
</svg>
