<svg width="476" height="610" viewBox="0 0 476 610" fill="none" xmlns="http://www.w3.org/2000/svg">
<path d="M266.109 132.341V608.131C268.513 607.83 270.907 607.496 273.288 607.123V133.349C270.907 132.977 268.513 132.642 266.109 132.341Z" fill="#006D77"/>
<path d="M288.118 136.178V604.295C290.524 603.757 292.92 603.191 295.298 602.58V137.893C292.92 137.281 290.524 136.716 288.118 136.178Z" fill="#006D77"/>
<path d="M310.127 142.244V598.228C312.537 597.436 314.932 596.613 317.307 595.744V144.728C314.932 143.86 312.537 143.037 310.127 142.244Z" fill="#006D77"/>
<path d="M332.137 150.738V589.734C334.549 588.66 336.947 587.56 339.317 586.409V154.064C336.948 152.912 334.549 151.812 332.137 150.738Z" fill="#006D77"/>
<path d="M354.146 161.945V578.528C356.568 577.129 358.959 575.681 361.326 574.199V166.274C358.959 164.792 356.568 163.344 354.146 161.945Z" fill="#006D77"/>
<path d="M376.156 176.357V564.115C378.582 562.329 380.981 560.507 383.336 558.631V181.841C380.981 179.965 378.582 178.144 376.156 176.357Z" fill="#006D77"/>
<path d="M398.166 194.704V545.768C400.607 543.472 403.002 541.128 405.346 538.731V201.742C403.002 199.345 400.607 197 398.166 194.704Z" fill="#006D77"/>
<path d="M420.175 218.387V522.086C422.643 519.042 425.036 515.934 427.355 512.768V227.704C425.036 224.538 422.643 221.431 420.175 218.387Z" fill="#006D77"/>
<path d="M442.185 250.548V489.925C444.72 485.485 447.108 480.949 449.365 476.335V264.137C447.108 259.523 444.72 254.987 442.185 250.548Z" fill="#006D77"/>
<path d="M471.374 335.851C469.754 324.452 467.342 313.313 464.194 302.491V437.982C467.342 427.16 469.754 416.021 471.374 404.622V335.851Z" fill="#006D77"/>
<path d="M238.059 479.463C369.022 479.463 475.188 372.131 475.188 239.731C475.188 107.331 369.022 0 238.059 0C107.097 0 0.930664 107.331 0.930664 239.731C0.930664 372.131 107.097 479.463 238.059 479.463Z" fill="#83C5BE"/>
<path d="M314.361 316.874C356.504 274.269 356.504 205.193 314.361 162.587C272.219 119.982 203.892 119.982 161.749 162.587C119.607 205.193 119.607 274.269 161.749 316.874C203.892 359.48 272.219 359.48 314.361 316.874Z" fill="#006D77"/>
<path d="M249.762 130.874C245.578 130.652 241.367 130.537 237.129 130.537C106.166 130.537 0 237.869 0 370.269C0 502.669 106.166 610 237.129 610C241.367 610 245.578 609.885 249.762 609.663V130.874Z" fill="#EDF6F9"/>
<path d="M1.99365 335.851V404.621C3.61334 416.021 6.02573 427.159 9.17347 437.981V302.491C6.02573 313.313 3.61366 324.452 1.99365 335.851Z" fill="#006D77"/>
<path d="M24.0037 264.137V476.335C26.26 480.949 28.6481 485.485 31.1835 489.925V250.548C28.6477 254.987 26.2597 259.523 24.0037 264.137Z" fill="#006D77"/>
<path d="M46.0129 227.704V512.768C48.3324 515.934 50.7253 519.042 53.1928 522.086V218.387C50.7253 221.431 48.3324 224.538 46.0129 227.704Z" fill="#006D77"/>
<path d="M68.0225 201.742V538.731C70.3656 541.128 72.7614 543.472 75.2023 545.768V194.704C72.7614 197.001 70.3656 199.345 68.0225 201.742Z" fill="#006D77"/>
<path d="M90.032 181.841V558.631C92.387 560.507 94.786 562.328 97.2118 564.115V176.357C94.786 178.144 92.387 179.965 90.032 181.841Z" fill="#006D77"/>
<path d="M112.042 166.274V574.199C114.409 575.681 116.799 577.129 119.221 578.528V161.945C116.799 163.344 114.409 164.792 112.042 166.274Z" fill="#006D77"/>
<path d="M134.051 154.064V586.409C136.42 587.56 138.819 588.661 141.231 589.734V150.738C138.819 151.812 136.42 152.912 134.051 154.064Z" fill="#006D77"/>
<path d="M156.061 144.728V595.744C158.435 596.612 160.831 597.435 163.24 598.228V142.244C160.831 143.037 158.435 143.86 156.061 144.728Z" fill="#006D77"/>
<path d="M178.07 137.893V602.58C180.448 603.192 182.844 603.757 185.25 604.295V136.178C182.844 136.716 180.448 137.281 178.07 137.893Z" fill="#006D77"/>
<path d="M200.08 133.349V607.123C202.461 607.496 204.855 607.83 207.26 608.131V132.341C204.855 132.642 202.461 132.977 200.08 133.349Z" fill="#006D77"/>
<path d="M222.09 130.97V609.502C224.474 609.649 226.866 609.765 229.269 609.84V130.633C226.866 130.708 224.474 130.824 222.09 130.97Z" fill="#006D77"/>
<path d="M244.099 130.633V609.839C246.502 609.765 248.894 609.649 251.279 609.502V130.97C248.894 130.824 246.502 130.708 244.099 130.633Z" fill="#006D77"/>
</svg>
