<svg width="219" height="5" viewBox="0 0 219 5" fill="none" xmlns="http://www.w3.org/2000/svg">
<path d="M0.276224 2.03479L0.552449 1.61802L0.426875 1.53479H0.276224V2.03479ZM1.28622 2.70419L1.01 3.12096L1.09708 3.17868L1.19998 3.19669L1.28622 2.70419ZM2.39622 2.89857L2.30998 3.39108L2.60194 3.4422L2.78691 3.2106L2.39622 2.89857ZM3.50622 1.50878L3.33988 1.03726L3.20488 1.08489L3.11554 1.19675L3.50622 1.50878ZM4.61622 1.1172L5.03121 0.838301L4.81516 0.516822L4.44988 0.645681L4.61622 1.1172ZM5.72622 2.76882L5.31124 3.04772L5.68492 3.60375L6.11166 3.08732L5.72622 2.76882ZM6.83622 1.42552L7.22823 1.11514L6.84452 0.630527L6.45079 1.10702L6.83622 1.42552ZM7.94622 2.82744L7.55422 3.13782L7.74988 3.38493L8.05722 3.31497L7.94622 2.82744ZM9.05622 2.57473L9.2651 2.12045L9.11081 2.04951L8.94523 2.08721L9.05622 2.57473ZM10.1662 3.0851L9.95735 3.53938L10.3418 3.71614L10.5797 3.36624L10.1662 3.0851ZM11.2762 1.45263L11.3311 0.955643L11.032 0.922641L10.8628 1.17149L11.2762 1.45263ZM12.3862 1.5751L12.5586 1.10577L12.5015 1.08479L12.4411 1.07811L12.3862 1.5751ZM13.4962 1.98289L13.7552 1.55516L13.7139 1.53019L13.6686 1.51356L13.4962 1.98289ZM14.6062 2.65486L14.3473 3.08259L14.6839 3.28639L14.9611 3.00706L14.6062 2.65486ZM15.7162 1.5363L16.0279 1.14534L15.6772 0.865752L15.3613 1.18411L15.7162 1.5363ZM16.8262 2.42125L16.5145 2.81221L16.7107 2.96859L16.9533 2.90483L16.8262 2.42125ZM17.9362 2.12955L17.843 1.63832L17.8259 1.64156L17.8091 1.64597L17.9362 2.12955ZM19.0462 1.91889L19.0797 1.42001L19.0158 1.41573L18.953 1.42765L19.0462 1.91889ZM20.1562 1.99331L20.2727 1.50706L20.2317 1.49725L20.1897 1.49443L20.1562 1.99331ZM21.2662 2.2591L21.1498 2.74536L21.1628 2.74846L21.1759 2.75087L21.2662 2.2591ZM22.3762 2.46306L22.2859 2.95483L22.496 2.99344L22.6691 2.86827L22.3762 2.46306ZM23.4862 1.66065L23.8901 1.36586L23.5966 0.963866L23.1933 1.25544L23.4862 1.66065ZM24.5962 3.18131L24.1924 3.4761L24.5911 4.02239L24.9965 3.48097L24.5962 3.18131ZM25.7062 1.69866L25.9131 1.24348L25.547 1.07707L25.306 1.39901L25.7062 1.69866ZM26.8162 2.20318L26.6093 2.65837L26.6209 2.66362L26.6327 2.66828L26.8162 2.20318ZM27.9262 2.64119L27.7427 3.10629L28.0087 3.21124L28.234 3.03524L27.9262 2.64119ZM29.0362 1.77421L29.0434 1.27427L28.8673 1.27173L28.7284 1.38017L29.0362 1.77421ZM30.1462 1.79018L30.139 2.29013L30.2565 2.29182L30.3624 2.24103L30.1462 1.79018ZM31.2562 1.25796L31.2276 0.758783L31.1291 0.764431L31.0401 0.80711L31.2562 1.25796ZM32.3662 1.19435L32.6577 0.7881L32.5141 0.685057L32.3376 0.69517L32.3662 1.19435ZM33.4762 1.99076L33.1847 2.39701L33.4972 2.62116L33.794 2.37679L33.4762 1.99076ZM34.5862 1.077L34.9936 0.787056L34.6825 0.35008L34.2684 0.690971L34.5862 1.077ZM35.6962 2.63648L35.2889 2.92642L35.6953 3.49744L36.103 2.92728L35.6962 2.63648ZM36.8062 1.08397L37.0835 0.667892L36.6809 0.399589L36.3995 0.793164L36.8062 1.08397ZM37.9162 1.82368L37.639 2.23975L37.6549 2.25041L37.6717 2.25981L37.9162 1.82368ZM39.0262 2.44598L38.7817 2.88212L39.0957 3.05813L39.3622 2.81626L39.0262 2.44598ZM40.1362 1.43873L40.4438 1.04455L40.112 0.785562L39.8002 1.06845L40.1362 1.43873ZM41.2462 2.30496L40.9386 2.69913L41.0546 2.78967L41.2012 2.80293L41.2462 2.30496ZM42.3562 2.40535L42.3112 2.90332L42.5501 2.92493L42.7165 2.75204L42.3562 2.40535ZM43.4662 1.25184L43.6358 0.781458L43.3308 0.671518L43.1059 0.905143L43.4662 1.25184ZM44.5762 1.65193L44.8079 1.20884L44.7778 1.19308L44.7458 1.18155L44.5762 1.65193ZM45.6862 2.23228L46.0035 1.84584L45.9636 1.8131L45.9179 1.78919L45.6862 2.23228ZM46.7962 3.14361L46.4789 3.53005L46.8503 3.83498L47.1698 3.47597L46.7962 3.14361ZM47.9062 1.89603L47.6376 1.47433L47.5789 1.5117L47.5327 1.56368L47.9062 1.89603ZM49.0162 1.18893L49.0012 0.689157L48.8636 0.693301L48.7476 0.767227L49.0162 1.18893ZM50.1262 1.15549L50.1172 0.65553L50.1112 0.655712L50.1262 1.15549ZM51.2362 1.13546L51.5622 0.756282L51.4177 0.6321L51.2272 0.635537L51.2362 1.13546ZM52.3462 2.08958L52.0203 2.46875L52.112 2.54756L52.2296 2.57578L52.3462 2.08958ZM53.4562 2.35595L53.7398 1.94411L53.6632 1.89143L53.5729 1.86975L53.4562 2.35595ZM54.5662 3.12014L54.2827 3.53198L54.6417 3.77913L54.9355 3.45723L54.5662 3.12014ZM55.6762 1.90409L55.9923 1.51664L55.6258 1.2177L55.3069 1.56701L55.6762 1.90409ZM56.7862 2.80951L56.4702 3.19696L56.9256 3.56841L57.2193 3.05942L56.7862 2.80951ZM57.8962 0.885993L58.0166 0.400697L57.6513 0.310091L57.4632 0.636086L57.8962 0.885993ZM59.0062 1.1613L59.3409 0.789796L59.248 0.706109L59.1266 0.676007L59.0062 1.1613ZM60.1162 2.16115L59.7816 2.53265L59.99 2.72035L60.2588 2.6404L60.1162 2.16115ZM61.2262 1.83098L61.5294 1.4334L61.3273 1.27927L61.0837 1.35173L61.2262 1.83098ZM62.3362 2.67747L62.033 3.07505L62.3737 3.33487L62.6827 3.03799L62.3362 2.67747ZM63.4462 1.61081L63.6098 1.13832L63.3205 1.03818L63.0998 1.25029L63.4462 1.61081ZM64.5562 1.99505L64.3927 2.46755L64.562 2.52617L64.7301 2.46386L64.5562 1.99505ZM65.6662 1.58345L66.05 1.26297L65.8236 0.991832L65.4924 1.11465L65.6662 1.58345ZM66.7762 2.91269L66.3924 3.23318L66.6837 3.58198L67.0587 3.32527L66.7762 2.91269ZM67.8862 2.15275L68.1965 1.76067L67.9077 1.53211L67.6038 1.74018L67.8862 2.15275ZM68.9962 3.03114L68.686 3.42323L69.0333 3.69808L69.348 3.38645L68.9962 3.03114ZM70.1062 1.9321L69.9795 1.44842L69.8498 1.48242L69.7544 1.5768L70.1062 1.9321ZM71.2162 1.64134L71.0925 1.15687L71.0895 1.15766L71.2162 1.64134ZM72.3262 1.35788L72.6371 0.966282L72.4428 0.812057L72.2025 0.873429L72.3262 1.35788ZM73.4362 2.23909L73.1253 2.63069L73.3101 2.77735L73.5407 2.72805L73.4362 2.23909ZM74.5462 2.00184L74.6507 2.4908L74.7591 2.46763L74.8476 2.4008L74.5462 2.00184ZM75.6562 1.16334L76.0618 0.87086L75.7627 0.456262L75.3549 0.76438L75.6562 1.16334ZM76.7662 2.70237L76.3607 2.99485L76.4629 3.13654L76.6311 3.18376L76.7662 2.70237ZM77.8762 3.014L77.7411 3.49539L77.8649 3.53015L77.9902 3.50085L77.8762 3.014ZM78.9862 2.75425L78.9045 2.26098L78.8883 2.26366L78.8723 2.26741L78.9862 2.75425ZM80.0962 2.57039L80.1779 3.06367L80.2376 3.05379L80.2931 3.02998L80.0962 2.57039ZM81.2062 2.09479L81.2671 1.59851L81.1332 1.58209L81.0093 1.6352L81.2062 2.09479ZM82.3162 2.23092L82.4307 1.74421L82.4042 1.73796L82.3771 1.73464L82.3162 2.23092ZM83.4262 2.49201L83.3117 2.97873L83.5704 3.03958L83.7656 2.85918L83.4262 2.49201ZM84.5362 1.46602L84.3313 1.00996L84.2568 1.04342L84.1968 1.09885L84.5362 1.46602ZM85.6462 0.967191L86.0765 0.71257L85.8489 0.327924L85.4413 0.511127L85.6462 0.967191ZM86.7562 2.84311L86.3259 3.09773L86.6876 3.70893L87.141 3.16236L86.7562 2.84311ZM87.8662 1.5052L88.0771 1.05183L87.7275 0.889286L87.4814 1.18594L87.8662 1.5052ZM88.9762 2.02139L88.7654 2.47477L89.0799 2.62103L89.3271 2.37765L88.9762 2.02139ZM90.0862 0.9283L90.4882 0.630891L90.1457 0.168028L89.7354 0.572043L90.0862 0.9283ZM91.1962 2.4284L90.7943 2.72581L90.9451 2.9296L91.1986 2.9284L91.1962 2.4284ZM92.3062 2.42311L92.3086 2.92311L92.558 2.92192L92.707 2.72203L92.3062 2.42311ZM93.4162 0.934709L93.6574 0.496709L93.2758 0.286624L93.0154 0.635798L93.4162 0.934709ZM94.5262 1.54586L94.9128 1.22879L94.8518 1.15431L94.7674 1.10786L94.5262 1.54586ZM95.6362 2.89931L95.2496 3.21638L95.4833 3.50131L95.8246 3.36245L95.6362 2.89931ZM96.7462 2.44773L96.9346 2.91087L96.9762 2.89397L97.0141 2.86994L96.7462 2.44773ZM97.8562 1.74358L97.8685 1.24373L97.7166 1.24001L97.5884 1.32137L97.8562 1.74358ZM98.9662 1.77078L99.1661 1.31247L99.0764 1.27333L98.9785 1.27093L98.9662 1.77078ZM100.076 2.25487L99.8764 2.71318L100.122 2.82042L100.348 2.67485L100.076 2.25487ZM101.186 1.53775L101.292 1.04911L101.089 1.00509L100.915 1.11777L101.186 1.53775ZM102.296 1.77852L102.688 1.4681L102.577 1.32782L102.402 1.28988L102.296 1.77852ZM103.406 3.18015L103.014 3.49057L103.169 3.68651L103.419 3.67998L103.406 3.18015ZM104.516 3.15114L104.529 3.65097L104.783 3.64433L104.928 3.43515L104.516 3.15114ZM105.626 1.54286L105.847 1.09433L105.46 0.903563L105.215 1.25885L105.626 1.54286ZM106.736 2.08965L106.515 2.53818L106.782 2.6695L107.025 2.49812L106.736 2.08965ZM107.846 1.30602L107.734 0.818759L107.638 0.840823L107.558 0.89755L107.846 1.30602ZM108.956 1.0505L109.141 0.586001L108.996 0.528219L108.844 0.563244L108.956 1.0505ZM110.066 1.49268L110.432 1.15169L110.355 1.06968L110.251 1.02818L110.066 1.49268ZM111.176 2.68307L110.811 3.02407L110.994 3.22034L111.258 3.1763L111.176 2.68307ZM112.286 2.49841L112.293 1.99847L112.248 1.99782L112.204 2.00519L112.286 2.49841ZM113.396 2.51434L113.389 3.01428L113.476 3.01553L113.558 2.98758L113.396 2.51434ZM114.506 2.13583L114.441 1.64008L114.392 1.64654L114.345 1.66258L114.506 2.13583ZM115.616 1.99016L115.681 2.48591L115.763 2.47516L115.837 2.43859L115.616 1.99016ZM116.726 1.4427L117.104 1.11476L116.851 0.823743L116.505 0.994271L116.726 1.4427ZM117.836 2.72022L117.459 3.04816L117.906 3.56315L118.263 2.9814L117.836 2.72022ZM118.946 0.908124L119.354 0.6193L118.916 2.55108e-05L118.52 0.646951L118.946 0.908124ZM120.056 2.47668L119.648 2.7655L119.771 2.93979L119.983 2.97123L120.056 2.47668ZM121.166 2.64193L121.093 3.13648L121.291 3.16608L121.455 3.0498L121.166 2.64193ZM122.276 1.85489L122.491 1.40355L122.226 1.27725L121.987 1.44701L122.276 1.85489ZM123.386 2.38403L123.171 2.83537L123.495 2.98995L123.745 2.73195L123.386 2.38403ZM124.496 1.23838L124.579 0.74536L124.32 0.701551L124.137 0.890455L124.496 1.23838ZM125.606 1.42588L125.887 1.01248L125.797 0.95105L125.69 0.932861L125.606 1.42588ZM126.716 2.18105L126.435 2.59445L126.707 2.77918L126.984 2.60336L126.716 2.18105ZM127.826 1.4775L127.875 0.979893L127.704 0.963076L127.559 1.05518L127.826 1.4775ZM128.936 1.58652L129.063 1.10292L129.025 1.09281L128.985 1.08891L128.936 1.58652ZM130.046 1.87807L129.919 2.36167L130.107 2.41104L130.279 2.32053L130.046 1.87807ZM131.156 1.29386L131.519 0.950099L131.259 0.674882L130.923 0.851402L131.156 1.29386ZM132.266 2.46625L131.903 2.81001L132.269 3.19612L132.632 2.80753L132.266 2.46625ZM133.376 1.27778L133.607 0.834223L133.27 0.658925L133.011 0.936499L133.376 1.27778ZM134.486 1.85528L134.255 2.29884L134.352 2.34891L134.46 2.35459L134.486 1.85528ZM135.596 1.91349L135.57 2.4128L135.62 2.41542L135.669 2.40814L135.596 1.91349ZM136.706 1.74982L137.07 1.40715L136.891 1.2171L136.633 1.25517L136.706 1.74982ZM137.816 2.92932L137.452 3.27199L137.894 3.74124L138.239 3.19693L137.816 2.92932ZM138.926 1.1774L138.953 0.678127L138.661 0.662324L138.504 0.909797L138.926 1.1774ZM140.036 1.23736L140.092 0.74048L140.078 0.738869L140.063 0.738089L140.036 1.23736ZM141.146 1.36193L141.378 0.918959L141.295 0.8755L141.202 0.86505L141.146 1.36193ZM142.256 1.94301L142.024 2.38599L142.025 2.38608L142.256 1.94301ZM143.366 2.5235L143.135 2.96657L143.518 3.16725L143.772 2.81608L143.366 2.5235ZM144.476 0.985309L144.785 0.592364L144.376 0.270054L144.071 0.692723L144.476 0.985309ZM145.586 1.8587L145.277 2.25165L145.34 2.30152L145.416 2.32894L145.586 1.8587ZM146.696 2.25984L146.526 2.73007L146.653 2.77585L146.785 2.75181L146.696 2.25984ZM147.806 2.05847L148.101 1.65425L147.928 1.5283L147.717 1.5665L147.806 2.05847ZM148.916 2.8666L148.622 3.27082L148.705 3.33117L148.805 3.35402L148.916 2.8666ZM150.026 3.12038L149.915 3.6078L150.184 3.6693L150.379 3.47449L150.026 3.12038ZM151.136 2.01385L150.966 1.54384L150.862 1.58159L150.783 1.65974L151.136 2.01385ZM152.246 1.61107L152.209 1.11246L152.14 1.11758L152.076 1.14106L152.246 1.61107ZM153.356 1.52817L153.653 1.1255L153.504 1.01578L153.319 1.02956L153.356 1.52817ZM154.466 2.34522L154.17 2.7479L154.47 2.96854L154.767 2.74468L154.466 2.34522ZM155.576 1.50961L155.968 1.19951L155.666 0.816468L155.276 1.11014L155.576 1.50961ZM156.686 2.91359L156.294 3.22368L156.606 3.61789L156.998 3.30425L156.686 2.91359ZM157.796 2.02692L157.494 1.6284L157.484 1.63626L157.796 2.02692ZM158.906 1.18508L159.241 0.813563L158.934 0.536806L158.604 0.786694L158.906 1.18508ZM160.016 2.18485L159.682 2.55637L159.72 2.59065L159.764 2.61651L160.016 2.18485ZM161.126 2.83371L160.874 3.26537L161.223 3.46963L161.496 3.17041L161.126 2.83371ZM162.236 1.61509L162.021 1.16389L161.932 1.20606L161.867 1.27839L162.236 1.61509ZM163.346 1.08505L163.65 0.68817L163.407 0.501853L163.131 0.633851L163.346 1.08505ZM164.456 1.93562L164.152 2.3325L164.166 2.34338L164.181 2.35322L164.456 1.93562ZM165.566 2.66647L165.291 3.08408L165.481 3.20904L165.7 3.14825L165.566 2.66647ZM166.676 2.35831L166.81 2.84008L166.955 2.79995L167.053 2.68687L166.676 2.35831ZM167.786 1.08506L168.217 0.831113L167.865 0.233979L167.409 0.756497L167.786 1.08506ZM168.896 2.96767L168.466 3.22162L168.866 3.901L169.31 3.24887L168.896 2.96767ZM170.006 1.33575L170.381 1.00499L169.955 0.52192L169.593 1.05454L170.006 1.33575ZM171.116 2.5941L170.741 2.92486L171.159 3.39858L171.524 2.8831L171.116 2.5941ZM172.226 1.02696L172.41 0.561868L172.045 0.417883L171.818 0.737961L172.226 1.02696ZM173.336 1.46501L173.153 1.9301L173.295 1.98624L173.444 1.9532L173.336 1.46501ZM174.446 1.21941L174.432 0.719619L174.384 0.720995L174.338 0.731215L174.446 1.21941ZM175.556 1.18711L175.973 0.911515L175.82 0.679218L175.542 0.687317L175.556 1.18711ZM176.666 2.86743L176.249 3.14302L176.503 3.52752L176.907 3.30568L176.666 2.86743ZM177.776 2.25778L178.017 2.69603L178.033 2.68696L178.049 2.67667L177.776 2.25778ZM178.886 1.53436L178.829 1.03768L178.712 1.05121L178.613 1.11547L178.886 1.53436ZM179.996 1.40581L180.418 1.13757L180.25 0.873077L179.939 0.909131L179.996 1.40581ZM181.106 3.15191L180.684 3.42015L181.069 4.0261L181.504 3.45463L181.106 3.15191ZM182.216 1.6927L182.495 1.27765L182.104 1.01479L181.818 1.38999L182.216 1.6927ZM183.326 2.43829L183.047 2.85334L183.09 2.88211L183.138 2.90152L183.326 2.43829ZM184.436 2.88918L184.248 3.35242L184.413 3.41931L184.583 3.36727L184.436 2.88918ZM185.546 2.54927L185.693 3.02736L185.801 2.99431L185.884 2.91808L185.546 2.54927ZM186.656 1.53319L186.573 1.04009L186.428 1.06457L186.319 1.16438L186.656 1.53319ZM187.766 1.34679L188.058 0.940563L187.889 0.819229L187.683 0.853694L187.766 1.34679ZM188.876 2.14335L189.187 1.75166L189.178 1.74416L189.168 1.73712L188.876 2.14335ZM189.986 3.02401L189.675 3.41571L190.118 3.76699L190.413 3.28469L189.986 3.02401ZM191.096 1.20721L191.253 0.732489L190.876 0.607925L190.67 0.946533L191.096 1.20721ZM192.206 1.57421L192.049 2.04894L192.109 2.06863L192.171 2.073L192.206 1.57421ZM193.316 1.65165L193.551 1.21029L193.457 1.16027L193.351 1.15287L193.316 1.65165ZM194.426 2.24253L194.191 2.68389L194.227 2.70297L194.266 2.71602L194.426 2.24253ZM195.536 2.61919L195.376 3.09267L195.462 3.12206L195.554 3.11889L195.536 2.61919ZM196.646 2.58066L196.664 3.08036L196.683 3.0797L196.701 3.0776L196.646 2.58066ZM197.756 2.45726L197.811 2.9542L197.932 2.94084L198.032 2.87406L197.756 2.45726ZM198.866 1.72175L198.804 1.22562L198.688 1.24018L198.59 1.30495L198.866 1.72175ZM199.976 1.58288L200.055 1.08911L199.985 1.07792L199.914 1.08675L199.976 1.58288ZM201.086 1.75975L201.008 2.25352L201.171 2.27954L201.317 2.2031L201.086 1.75975ZM202.196 1.18095L202.081 0.694399L202.02 0.708767L201.965 0.737604L202.196 1.18095ZM203.306 0.918174L203.685 0.592325L203.487 0.361522L203.191 0.431623L203.306 0.918174ZM204.416 2.21005L204.037 2.5359L204.151 2.66834L204.322 2.70115L204.416 2.21005ZM205.526 2.4224L205.733 1.96696L205.678 1.94246L205.62 1.9313L205.526 2.4224ZM206.636 2.92528L206.43 3.38072L206.739 3.52058L206.983 3.28563L206.636 2.92528ZM207.746 1.85758L207.957 1.40403L207.646 1.25997L207.4 1.49722L207.746 1.85758ZM208.856 2.37269L208.646 2.82623L208.777 2.88725L208.921 2.86848L208.856 2.37269ZM209.966 2.22774L210.141 1.75937L210.025 1.71585L209.901 1.73195L209.966 2.22774ZM211.076 2.64249L210.901 3.11086L211.279 3.25193L211.497 2.91295L211.076 2.64249ZM212.186 0.916511L212.573 0.599533L212.137 0.0681701L211.766 0.646055L212.186 0.916511ZM213.296 2.27059L212.91 2.58757L213.199 2.94043L213.577 2.6846L213.296 2.27059ZM214.406 1.51893L214.709 1.1214L214.424 0.903314L214.126 1.10493L214.406 1.51893ZM215.516 2.36571L215.213 2.76324L215.344 2.86321L215.509 2.86565L215.516 2.36571ZM216.626 2.38216L216.619 2.8821L216.649 2.88255L216.679 2.87937L216.626 2.38216ZM217.736 2.26456L217.789 2.76178L217.883 2.75183L217.967 2.70826L217.736 2.26456ZM0.176224 2.03479V2.53479H0.276224V2.03479V1.53479H0.176224V2.03479ZM0.276224 2.03479L-1.54972e-06 2.45156L1.01 3.12096L1.28622 2.70419L1.56245 2.28742L0.552449 1.61802L0.276224 2.03479ZM1.28622 2.70419L1.19998 3.19669L2.30998 3.39108L2.39622 2.89857L2.48247 2.40607L1.37247 2.21168L1.28622 2.70419ZM2.39622 2.89857L2.78691 3.2106L3.89691 1.82081L3.50622 1.50878L3.11554 1.19675L2.00554 2.58654L2.39622 2.89857ZM3.50622 1.50878L3.67256 1.9803L4.78256 1.58872L4.61622 1.1172L4.44988 0.645681L3.33988 1.03726L3.50622 1.50878ZM4.61622 1.1172L4.20124 1.3961L5.31124 3.04772L5.72622 2.76882L6.14121 2.48993L5.03121 0.838301L4.61622 1.1172ZM5.72622 2.76882L6.11166 3.08732L7.22166 1.74401L6.83622 1.42552L6.45079 1.10702L5.34079 2.45033L5.72622 2.76882ZM6.83622 1.42552L6.44422 1.73589L7.55422 3.13782L7.94622 2.82744L8.33823 2.51706L7.22823 1.11514L6.83622 1.42552ZM7.94622 2.82744L8.05722 3.31497L9.16722 3.06226L9.05622 2.57473L8.94523 2.08721L7.83523 2.33992L7.94622 2.82744ZM9.05622 2.57473L8.84735 3.02901L9.95735 3.53938L10.1662 3.0851L10.3751 2.63082L9.2651 2.12045L9.05622 2.57473ZM10.1662 3.0851L10.5797 3.36624L11.6897 1.73377L11.2762 1.45263L10.8628 1.17149L9.75275 2.80396L10.1662 3.0851ZM11.2762 1.45263L11.2214 1.94961L12.3314 2.07208L12.3862 1.5751L12.4411 1.07811L11.3311 0.955643L11.2762 1.45263ZM12.3862 1.5751L12.2138 2.04443L13.3238 2.45222L13.4962 1.98289L13.6686 1.51356L12.5586 1.10577L12.3862 1.5751ZM13.4962 1.98289L13.2373 2.41062L14.3473 3.08259L14.6062 2.65486L14.8652 2.22714L13.7552 1.55516L13.4962 1.98289ZM14.6062 2.65486L14.9611 3.00706L16.0711 1.88849L15.7162 1.5363L15.3613 1.18411L14.2513 2.30267L14.6062 2.65486ZM15.7162 1.5363L15.4045 1.92725L16.5145 2.81221L16.8262 2.42125L17.1379 2.03029L16.0279 1.14534L15.7162 1.5363ZM16.8262 2.42125L16.9533 2.90483L18.0633 2.61313L17.9362 2.12955L17.8091 1.64597L16.6991 1.93767L16.8262 2.42125ZM17.9362 2.12955L18.0295 2.62078L19.1395 2.41012L19.0462 1.91889L18.953 1.42765L17.843 1.63832L17.9362 2.12955ZM19.0462 1.91889L19.0128 2.41777L20.1228 2.49219L20.1562 1.99331L20.1897 1.49443L19.0797 1.42001L19.0462 1.91889ZM20.1562 1.99331L20.0398 2.47957L21.1498 2.74536L21.2662 2.2591L21.3827 1.77285L20.2727 1.50706L20.1562 1.99331ZM21.2662 2.2591L21.1759 2.75087L22.2859 2.95483L22.3762 2.46306L22.4666 1.9713L21.3566 1.76734L21.2662 2.2591ZM22.3762 2.46306L22.6691 2.86827L23.7791 2.06586L23.4862 1.66065L23.1933 1.25544L22.0833 2.05785L22.3762 2.46306ZM23.4862 1.66065L23.0824 1.95544L24.1924 3.4761L24.5962 3.18131L25.0001 2.88652L23.8901 1.36586L23.4862 1.66065ZM24.5962 3.18131L24.9965 3.48097L26.1065 1.99832L25.7062 1.69866L25.306 1.39901L24.196 2.88165L24.5962 3.18131ZM25.7062 1.69866L25.4993 2.15385L26.6093 2.65837L26.8162 2.20318L27.0231 1.74799L25.9131 1.24348L25.7062 1.69866ZM26.8162 2.20318L26.6327 2.66828L27.7427 3.10629L27.9262 2.64119L28.1098 2.17609L26.9998 1.73808L26.8162 2.20318ZM27.9262 2.64119L28.234 3.03524L29.344 2.16826L29.0362 1.77421L28.7284 1.38017L27.6184 2.24714L27.9262 2.64119ZM29.0362 1.77421L29.029 2.27416L30.139 2.29013L30.1462 1.79018L30.1534 1.29023L29.0434 1.27427L29.0362 1.77421ZM30.1462 1.79018L30.3624 2.24103L31.4724 1.70882L31.2562 1.25796L31.0401 0.80711L29.9301 1.33933L30.1462 1.79018ZM31.2562 1.25796L31.2848 1.75715L32.3948 1.69353L32.3662 1.19435L32.3376 0.69517L31.2276 0.758783L31.2562 1.25796ZM32.3662 1.19435L32.0747 1.6006L33.1847 2.39701L33.4762 1.99076L33.7677 1.58451L32.6577 0.7881L32.3662 1.19435ZM33.4762 1.99076L33.794 2.37679L34.904 1.46302L34.5862 1.077L34.2684 0.690971L33.1584 1.60473L33.4762 1.99076ZM34.5862 1.077L34.1789 1.36694L35.2889 2.92642L35.6962 2.63648L36.1036 2.34654L34.9936 0.787056L34.5862 1.077ZM35.6962 2.63648L36.103 2.92728L37.213 1.37477L36.8062 1.08397L36.3995 0.793164L35.2895 2.34567L35.6962 2.63648ZM36.8062 1.08397L36.5289 1.50004L37.639 2.23975L37.9162 1.82368L38.1935 1.4076L37.0835 0.667892L36.8062 1.08397ZM37.9162 1.82368L37.6717 2.25981L38.7817 2.88212L39.0262 2.44598L39.2707 2.00985L38.1607 1.38754L37.9162 1.82368ZM39.0262 2.44598L39.3622 2.81626L40.4722 1.809L40.1362 1.43873L39.8002 1.06845L38.6902 2.07571L39.0262 2.44598ZM40.1362 1.43873L39.8286 1.8329L40.9386 2.69913L41.2462 2.30496L41.5538 1.91078L40.4438 1.04455L40.1362 1.43873ZM41.2462 2.30496L41.2012 2.80293L42.3112 2.90332L42.3562 2.40535L42.4013 1.90738L41.2913 1.80699L41.2462 2.30496ZM42.3562 2.40535L42.7165 2.75204L43.8265 1.59853L43.4662 1.25184L43.1059 0.905143L41.9959 2.05865L42.3562 2.40535ZM43.4662 1.25184L43.2967 1.72221L44.4067 2.12231L44.5762 1.65193L44.7458 1.18155L43.6358 0.781458L43.4662 1.25184ZM44.5762 1.65193L44.3446 2.09502L45.4546 2.67537L45.6862 2.23228L45.9179 1.78919L44.8079 1.20884L44.5762 1.65193ZM45.6862 2.23228L45.3689 2.61872L46.4789 3.53005L46.7962 3.14361L47.1135 2.75717L46.0035 1.84584L45.6862 2.23228ZM46.7962 3.14361L47.1698 3.47597L48.2798 2.22839L47.9062 1.89603L47.5327 1.56368L46.4227 2.81126L46.7962 3.14361ZM47.9062 1.89603L48.1749 2.31773L49.2849 1.61063L49.0162 1.18893L48.7476 0.767227L47.6376 1.47433L47.9062 1.89603ZM49.0162 1.18893L49.0313 1.6887L50.1413 1.65526L50.1262 1.15549L50.1112 0.655712L49.0012 0.689157L49.0162 1.18893ZM50.1262 1.15549L50.1352 1.6554L51.2452 1.63537L51.2362 1.13546L51.2272 0.635537L50.1172 0.655566L50.1262 1.15549ZM51.2362 1.13546L50.9103 1.51463L52.0203 2.46875L52.3462 2.08958L52.6722 1.71041L51.5622 0.756282L51.2362 1.13546ZM52.3462 2.08958L52.2296 2.57578L53.3395 2.84215L53.4562 2.35595L53.5729 1.86975L52.4629 1.60338L52.3462 2.08958ZM53.4562 2.35595L53.1727 2.76779L54.2827 3.53198L54.5662 3.12014L54.8498 2.70831L53.7398 1.94411L53.4562 2.35595ZM54.5662 3.12014L54.9355 3.45723L56.0455 2.24117L55.6762 1.90409L55.3069 1.56701L54.1969 2.78306L54.5662 3.12014ZM55.6762 1.90409L55.3602 2.29154L56.4702 3.19696L56.7862 2.80951L57.1023 2.42206L55.9923 1.51664L55.6762 1.90409ZM56.7862 2.80951L57.2193 3.05942L58.3293 1.1359L57.8962 0.885993L57.4632 0.636086L56.3532 2.5596L56.7862 2.80951ZM57.8962 0.885993L57.7759 1.37129L58.8859 1.6466L59.0062 1.1613L59.1266 0.676007L58.0166 0.400697L57.8962 0.885993ZM59.0062 1.1613L58.6716 1.53281L59.7816 2.53265L60.1162 2.16115L60.4509 1.78964L59.3409 0.789796L59.0062 1.1613ZM60.1162 2.16115L60.2588 2.6404L61.3688 2.31023L61.2262 1.83098L61.0837 1.35173L59.9737 1.6819L60.1162 2.16115ZM61.2262 1.83098L60.923 2.22856L62.033 3.07505L62.3362 2.67747L62.6394 2.27989L61.5294 1.4334L61.2262 1.83098ZM62.3362 2.67747L62.6827 3.03799L63.7927 1.97133L63.4462 1.61081L63.0998 1.25029L61.9898 2.31695L62.3362 2.67747ZM63.4462 1.61081L63.2827 2.0833L64.3927 2.46755L64.5562 1.99505L64.7198 1.52256L63.6098 1.13832L63.4462 1.61081ZM64.5562 1.99505L64.7301 2.46386L65.8401 2.05226L65.6662 1.58345L65.4924 1.11465L64.3824 1.52625L64.5562 1.99505ZM65.6662 1.58345L65.2824 1.90394L66.3924 3.23318L66.7762 2.91269L67.16 2.59221L66.05 1.26297L65.6662 1.58345ZM66.7762 2.91269L67.0587 3.32527L68.1687 2.56533L67.8862 2.15275L67.6038 1.74018L66.4938 2.50012L66.7762 2.91269ZM67.8862 2.15275L67.576 2.54484L68.686 3.42323L68.9962 3.03114L69.3065 2.63906L68.1965 1.76067L67.8862 2.15275ZM68.9962 3.03114L69.348 3.38645L70.458 2.28741L70.1062 1.9321L69.7544 1.5768L68.6444 2.67584L68.9962 3.03114ZM70.1062 1.9321L70.2329 2.41578L71.3429 2.12502L71.2162 1.64134L71.0895 1.15766L69.9795 1.44842L70.1062 1.9321ZM71.2162 1.64134L71.3399 2.12579L72.4499 1.84234L72.3262 1.35788L72.2025 0.873429L71.0925 1.15688L71.2162 1.64134ZM72.3262 1.35788L72.0153 1.74948L73.1253 2.63069L73.4362 2.23909L73.7471 1.84749L72.6371 0.966282L72.3262 1.35788ZM73.4362 2.23909L73.5407 2.72805L74.6507 2.4908L74.5462 2.00184L74.4417 1.51289L73.3317 1.75013L73.4362 2.23909ZM74.5462 2.00184L74.8476 2.4008L75.9576 1.5623L75.6562 1.16334L75.3549 0.76438L74.2449 1.60288L74.5462 2.00184ZM75.6562 1.16334L75.2507 1.45582L76.3607 2.99485L76.7662 2.70237L77.1718 2.40989L76.0618 0.87086L75.6562 1.16334ZM76.7662 2.70237L76.6311 3.18376L77.7411 3.49539L77.8762 3.014L78.0114 2.53261L76.9014 2.22098L76.7662 2.70237ZM77.8762 3.014L77.9902 3.50085L79.1001 3.2411L78.9862 2.75425L78.8723 2.26741L77.7623 2.52715L77.8762 3.014ZM78.9862 2.75425L79.0679 3.24753L80.1779 3.06367L80.0962 2.57039L80.0145 2.07711L78.9045 2.26098L78.9862 2.75425ZM80.0962 2.57039L80.2931 3.02998L81.4031 2.55438L81.2062 2.09479L81.0093 1.6352L79.8993 2.1108L80.0962 2.57039ZM81.2062 2.09479L81.1454 2.59107L82.2554 2.72721L82.3162 2.23092L82.3771 1.73464L81.2671 1.59851L81.2062 2.09479ZM82.3162 2.23092L82.2017 2.71764L83.3117 2.97873L83.4262 2.49201L83.5407 2.00529L82.4307 1.74421L82.3162 2.23092ZM83.4262 2.49201L83.7656 2.85918L84.8756 1.83319L84.5362 1.46602L84.1968 1.09885L83.0868 2.12484L83.4262 2.49201ZM84.5362 1.46602L84.7412 1.92208L85.8512 1.42325L85.6462 0.967191L85.4413 0.511127L84.3313 1.00996L84.5362 1.46602ZM85.6462 0.967191L85.2159 1.22181L86.3259 3.09773L86.7562 2.84311L87.1865 2.58848L86.0765 0.71257L85.6462 0.967191ZM86.7562 2.84311L87.141 3.16236L88.251 1.82446L87.8662 1.5052L87.4814 1.18594L86.3714 2.52385L86.7562 2.84311ZM87.8662 1.5052L87.6554 1.95857L88.7654 2.47477L88.9762 2.02139L89.1871 1.56802L88.0771 1.05183L87.8662 1.5052ZM88.9762 2.02139L89.3271 2.37765L90.4371 1.28456L90.0862 0.9283L89.7354 0.572043L88.6254 1.66514L88.9762 2.02139ZM90.0862 0.9283L89.6843 1.22571L90.7943 2.72581L91.1962 2.4284L91.5982 2.13099L90.4882 0.630891L90.0862 0.9283ZM91.1962 2.4284L91.1986 2.9284L92.3086 2.92311L92.3062 2.42311L92.3038 1.92312L91.1938 1.92841L91.1962 2.4284ZM92.3062 2.42311L92.707 2.72203L93.817 1.23362L93.4162 0.934709L93.0154 0.635798L91.9054 2.1242L92.3062 2.42311ZM93.4162 0.934709L93.1751 1.37271L94.2851 1.98386L94.5262 1.54586L94.7674 1.10786L93.6574 0.496709L93.4162 0.934709ZM94.5262 1.54586L94.1396 1.86293L95.2496 3.21638L95.6362 2.89931L96.0228 2.58224L94.9128 1.22879L94.5262 1.54586ZM95.6362 2.89931L95.8246 3.36245L96.9346 2.91087L96.7462 2.44773L96.5578 1.98459L95.4478 2.43617L95.6362 2.89931ZM96.7462 2.44773L97.0141 2.86994L98.1241 2.16579L97.8562 1.74358L97.5884 1.32137L96.4784 2.02552L96.7462 2.44773ZM97.8562 1.74358L97.844 2.24343L98.954 2.27063L98.9662 1.77078L98.9785 1.27093L97.8685 1.24373L97.8562 1.74358ZM98.9662 1.77078L98.7663 2.2291L99.8764 2.71318L100.076 2.25487L100.276 1.79656L99.1661 1.31247L98.9662 1.77078ZM100.076 2.25487L100.348 2.67485L101.458 1.95772L101.186 1.53775L100.915 1.11777L99.8049 1.83489L100.076 2.25487ZM101.186 1.53775L101.08 2.02638L102.19 2.26716L102.296 1.77852L102.402 1.28988L101.292 1.04911L101.186 1.53775ZM102.296 1.77852L101.904 2.08894L103.014 3.49057L103.406 3.18015L103.798 2.86973L102.688 1.4681L102.296 1.77852ZM103.406 3.18015L103.419 3.67998L104.529 3.65097L104.516 3.15114L104.503 2.65131L103.393 2.68032L103.406 3.18015ZM104.516 3.15114L104.928 3.43515L106.038 1.82687L105.626 1.54286L105.215 1.25885L104.105 2.86713L104.516 3.15114ZM105.626 1.54286L105.405 1.99139L106.515 2.53818L106.736 2.08965L106.957 1.64112L105.847 1.09433L105.626 1.54286ZM106.736 2.08965L107.025 2.49812L108.135 1.71448L107.846 1.30602L107.558 0.89755L106.448 1.68119L106.736 2.08965ZM107.846 1.30602L107.958 1.79327L109.068 1.53776L108.956 1.0505L108.844 0.563244L107.734 0.818759L107.846 1.30602ZM108.956 1.0505L108.771 1.515L109.881 1.95718L110.066 1.49268L110.251 1.02818L109.141 0.586001L108.956 1.0505ZM110.066 1.49268L109.701 1.83367L110.811 3.02407L111.176 2.68307L111.542 2.34208L110.432 1.15169L110.066 1.49268ZM111.176 2.68307L111.258 3.1763L112.368 2.99164L112.286 2.49841L112.204 2.00519L111.094 2.18985L111.176 2.68307ZM112.286 2.49841L112.279 2.99836L113.389 3.01428L113.396 2.51434L113.403 2.01439L112.293 1.99847L112.286 2.49841ZM113.396 2.51434L113.558 2.98758L114.668 2.60907L114.506 2.13583L114.345 1.66258L113.235 2.04109L113.396 2.51434ZM114.506 2.13583L114.571 2.63158L115.681 2.48591L115.616 1.99016L115.551 1.49441L114.441 1.64008L114.506 2.13583ZM115.616 1.99016L115.837 2.43859L116.947 1.89112L116.726 1.4427L116.505 0.994271L115.395 1.54174L115.616 1.99016ZM116.726 1.4427L116.349 1.77063L117.459 3.04816L117.836 2.72022L118.214 2.39229L117.104 1.11476L116.726 1.4427ZM117.836 2.72022L118.263 2.9814L119.373 1.1693L118.946 0.908124L118.52 0.646951L117.41 2.45905L117.836 2.72022ZM118.946 0.908124L118.538 1.19695L119.648 2.7655L120.056 2.47668L120.464 2.18785L119.354 0.6193L118.946 0.908124ZM120.056 2.47668L119.983 2.97123L121.093 3.13648L121.166 2.64193L121.24 2.14738L120.13 1.98213L120.056 2.47668ZM121.166 2.64193L121.455 3.0498L122.565 2.26277L122.276 1.85489L121.987 1.44701L120.877 2.23405L121.166 2.64193ZM122.276 1.85489L122.061 2.30623L123.171 2.83537L123.386 2.38403L123.601 1.93269L122.491 1.40355L122.276 1.85489ZM123.386 2.38403L123.745 2.73195L124.855 1.5863L124.496 1.23838L124.137 0.890455L123.027 2.03611L123.386 2.38403ZM124.496 1.23838L124.413 1.73139L125.523 1.91889L125.606 1.42588L125.69 0.932861L124.579 0.74536L124.496 1.23838ZM125.606 1.42588L125.325 1.83928L126.435 2.59445L126.716 2.18105L126.997 1.76765L125.887 1.01248L125.606 1.42588ZM126.716 2.18105L126.984 2.60336L128.094 1.89981L127.826 1.4775L127.559 1.05518L126.449 1.75873L126.716 2.18105ZM127.826 1.4775L127.777 1.9751L128.887 2.08412L128.936 1.58652L128.985 1.08891L127.875 0.979893L127.826 1.4775ZM128.936 1.58652L128.809 2.07012L129.919 2.36167L130.046 1.87807L130.173 1.39448L129.063 1.10292L128.936 1.58652ZM130.046 1.87807L130.279 2.32053L131.389 1.73632L131.156 1.29386L130.923 0.851402L129.813 1.43562L130.046 1.87807ZM131.156 1.29386L130.793 1.63762L131.903 2.81001L132.266 2.46625L132.629 2.12249L131.519 0.950099L131.156 1.29386ZM132.266 2.46625L132.632 2.80753L133.742 1.61907L133.376 1.27778L133.011 0.936499L131.901 2.12497L132.266 2.46625ZM133.376 1.27778L133.145 1.72134L134.255 2.29884L134.486 1.85528L134.717 1.41172L133.607 0.834223L133.376 1.27778ZM134.486 1.85528L134.46 2.35459L135.57 2.4128L135.596 1.91349L135.622 1.41418L134.512 1.35597L134.486 1.85528ZM135.596 1.91349L135.669 2.40814L136.779 2.24447L136.706 1.74982L136.633 1.25517L135.523 1.41884L135.596 1.91349ZM136.706 1.74982L136.342 2.09248L137.452 3.27199L137.816 2.92932L138.18 2.58666L137.07 1.40715L136.706 1.74982ZM137.816 2.92932L138.239 3.19693L139.349 1.445L138.926 1.1774L138.504 0.909797L137.394 2.66172L137.816 2.92932ZM138.926 1.1774L138.899 1.67667L140.009 1.73663L140.036 1.23736L140.063 0.738089L138.953 0.678127L138.926 1.1774ZM140.036 1.23736L139.98 1.73424L141.09 1.85881L141.146 1.36193L141.202 0.86505L140.092 0.74048L140.036 1.23736ZM141.146 1.36193L140.914 1.8049L142.024 2.38599L142.256 1.94301L142.488 1.50004L141.378 0.918959L141.146 1.36193ZM142.256 1.94301L142.025 2.38608L143.135 2.96657L143.366 2.5235L143.598 2.08043L142.488 1.49994L142.256 1.94301ZM143.366 2.5235L143.772 2.81608L144.882 1.2779L144.476 0.985309L144.071 0.692723L142.961 2.23091L143.366 2.5235ZM144.476 0.985309L144.167 1.37825L145.277 2.25165L145.586 1.8587L145.895 1.46576L144.785 0.592364L144.476 0.985309ZM145.586 1.8587L145.416 2.32894L146.526 2.73007L146.696 2.25984L146.866 1.7896L145.756 1.38847L145.586 1.8587ZM146.696 2.25984L146.785 2.75181L147.895 2.55044L147.806 2.05847L147.717 1.5665L146.607 1.76787L146.696 2.25984ZM147.806 2.05847L147.512 2.46269L148.622 3.27082L148.916 2.8666L149.211 2.46238L148.101 1.65425L147.806 2.05847ZM148.916 2.8666L148.805 3.35402L149.915 3.6078L150.026 3.12038L150.138 2.63295L149.028 2.37917L148.916 2.8666ZM150.026 3.12038L150.379 3.47449L151.489 2.36796L151.136 2.01385L150.783 1.65974L149.673 2.76627L150.026 3.12038ZM151.136 2.01385L151.307 2.48386L152.417 2.08108L152.246 1.61107L152.076 1.14106L150.966 1.54384L151.136 2.01385ZM152.246 1.61107L152.283 2.10968L153.393 2.02678L153.356 1.52817L153.319 1.02956L152.209 1.11246L152.246 1.61107ZM153.356 1.52817L153.06 1.93085L154.17 2.7479L154.466 2.34522L154.763 1.94255L153.653 1.1255L153.356 1.52817ZM154.466 2.34522L154.767 2.74468L155.877 1.90907L155.576 1.50961L155.276 1.11014L154.166 1.94576L154.466 2.34522ZM155.576 1.50961L155.184 1.8197L156.294 3.22368L156.686 2.91359L157.078 2.6035L155.968 1.19951L155.576 1.50961ZM156.686 2.91359L156.998 3.30425L158.108 2.41758L157.796 2.02692L157.484 1.63626L156.374 2.52293L156.686 2.91359ZM157.796 2.02692L158.098 2.4253L159.208 1.58347L158.906 1.18508L158.604 0.786694L157.494 1.62853L157.796 2.02692ZM158.906 1.18508L158.572 1.5566L159.682 2.55637L160.016 2.18485L160.351 1.81333L159.241 0.813563L158.906 1.18508ZM160.016 2.18485L159.764 2.61651L160.874 3.26537L161.126 2.83371L161.379 2.40206L160.269 1.75319L160.016 2.18485ZM161.126 2.83371L161.496 3.17041L162.606 1.95179L162.236 1.61509L161.867 1.27839L160.757 2.49702L161.126 2.83371ZM162.236 1.61509L162.452 2.06629L163.562 1.53625L163.346 1.08505L163.131 0.633851L162.021 1.16389L162.236 1.61509ZM163.346 1.08505L163.042 1.48193L164.152 2.3325L164.456 1.93562L164.76 1.53874L163.65 0.68817L163.346 1.08505ZM164.456 1.93562L164.181 2.35322L165.291 3.08408L165.566 2.66647L165.841 2.24887L164.731 1.51801L164.456 1.93562ZM165.566 2.66647L165.7 3.14825L166.81 2.84008L166.676 2.35831L166.542 1.87653L165.432 2.1847L165.566 2.66647ZM166.676 2.35831L167.053 2.68687L168.163 1.41363L167.786 1.08506L167.409 0.756497L166.299 2.02974L166.676 2.35831ZM167.786 1.08506L167.356 1.33901L168.466 3.22162L168.896 2.96767L169.327 2.71372L168.217 0.831113L167.786 1.08506ZM168.896 2.96767L169.31 3.24887L170.42 1.61695L170.006 1.33575L169.593 1.05454L168.483 2.68646L168.896 2.96767ZM170.006 1.33575L169.631 1.6665L170.741 2.92486L171.116 2.5941L171.491 2.26335L170.381 1.00499L170.006 1.33575ZM171.116 2.5941L171.524 2.8831L172.634 1.31596L172.226 1.02696L171.818 0.737961L170.708 2.30511L171.116 2.5941ZM172.226 1.02696L172.043 1.49205L173.153 1.9301L173.336 1.46501L173.52 0.999915L172.41 0.561868L172.226 1.02696ZM173.336 1.46501L173.444 1.9532L174.554 1.7076L174.446 1.21941L174.338 0.731215L173.228 0.976816L173.336 1.46501ZM174.446 1.21941L174.461 1.7192L175.571 1.68689L175.556 1.18711L175.542 0.687317L174.432 0.719619L174.446 1.21941ZM175.556 1.18711L175.139 1.4627L176.249 3.14302L176.666 2.86743L177.083 2.59184L175.973 0.911515L175.556 1.18711ZM176.666 2.86743L176.907 3.30568L178.017 2.69603L177.776 2.25778L177.536 1.81953L176.426 2.42918L176.666 2.86743ZM177.776 2.25778L178.049 2.67667L179.159 1.95324L178.886 1.53436L178.613 1.11547L177.503 1.83889L177.776 2.25778ZM178.886 1.53436L178.944 2.03104L180.054 1.90249L179.996 1.40581L179.939 0.909131L178.829 1.03768L178.886 1.53436ZM179.996 1.40581L179.574 1.67405L180.684 3.42015L181.106 3.15191L181.528 2.88368L180.418 1.13757L179.996 1.40581ZM181.106 3.15191L181.504 3.45463L182.614 1.99542L182.216 1.6927L181.818 1.38999L180.708 2.8492L181.106 3.15191ZM182.216 1.6927L181.937 2.10776L183.047 2.85334L183.326 2.43829L183.605 2.02323L182.495 1.27765L182.216 1.6927ZM183.326 2.43829L183.138 2.90152L184.248 3.35242L184.436 2.88918L184.624 2.42594L183.514 1.97505L183.326 2.43829ZM184.436 2.88918L184.583 3.36727L185.693 3.02736L185.546 2.54927L185.4 2.07119L184.29 2.4111L184.436 2.88918ZM185.546 2.54927L185.884 2.91808L186.994 1.902L186.656 1.53319L186.319 1.16438L185.209 2.18046L185.546 2.54927ZM186.656 1.53319L186.739 2.02628L187.849 1.83989L187.766 1.34679L187.683 0.853694L186.573 1.04009L186.656 1.53319ZM187.766 1.34679L187.475 1.75302L188.585 2.54957L188.876 2.14335L189.168 1.73712L188.058 0.940563L187.766 1.34679ZM188.876 2.14335L188.565 2.53504L189.675 3.41571L189.986 3.02401L190.297 2.63232L189.187 1.75166L188.876 2.14335ZM189.986 3.02401L190.413 3.28469L191.523 1.46789L191.096 1.20721L190.67 0.946533L189.56 2.76333L189.986 3.02401ZM191.096 1.20721L190.939 1.68194L192.049 2.04894L192.206 1.57421L192.363 1.09949L191.253 0.732489L191.096 1.20721ZM192.206 1.57421L192.171 2.073L193.281 2.15044L193.316 1.65165L193.351 1.15287L192.241 1.07542L192.206 1.57421ZM193.316 1.65165L193.081 2.09301L194.191 2.68389L194.426 2.24253L194.661 1.80117L193.551 1.21029L193.316 1.65165ZM194.426 2.24253L194.266 2.71602L195.376 3.09267L195.536 2.61919L195.697 2.14571L194.587 1.76905L194.426 2.24253ZM195.536 2.61919L195.554 3.11889L196.664 3.08036L196.646 2.58066L196.629 2.08096L195.519 2.11949L195.536 2.61919ZM196.646 2.58066L196.701 3.0776L197.811 2.9542L197.756 2.45726L197.701 1.96032L196.591 2.08372L196.646 2.58066ZM197.756 2.45726L198.032 2.87406L199.142 2.13855L198.866 1.72175L198.59 1.30495L197.48 2.04046L197.756 2.45726ZM198.866 1.72175L198.928 2.21788L200.038 2.07901L199.976 1.58288L199.914 1.08675L198.804 1.22562L198.866 1.72175ZM199.976 1.58288L199.898 2.07665L201.008 2.25352L201.086 1.75975L201.165 1.26598L200.055 1.08911L199.976 1.58288ZM201.086 1.75975L201.317 2.2031L202.427 1.6243L202.196 1.18095L201.965 0.737604L200.855 1.31641L201.086 1.75975ZM202.196 1.18095L202.311 1.6675L203.421 1.40473L203.306 0.918174L203.191 0.431623L202.081 0.694399L202.196 1.18095ZM203.306 0.918174L202.927 1.24402L204.037 2.5359L204.416 2.21005L204.795 1.8842L203.685 0.592325L203.306 0.918174ZM204.416 2.21005L204.322 2.70115L205.432 2.91349L205.526 2.4224L205.62 1.9313L204.51 1.71896L204.416 2.21005ZM205.526 2.4224L205.32 2.87783L206.43 3.38072L206.636 2.92528L206.843 2.46984L205.733 1.96696L205.526 2.4224ZM206.636 2.92528L206.983 3.28563L208.093 2.21793L207.746 1.85758L207.4 1.49722L206.29 2.56493L206.636 2.92528ZM207.746 1.85758L207.536 2.31112L208.646 2.82623L208.856 2.37269L209.067 1.91915L207.957 1.40403L207.746 1.85758ZM208.856 2.37269L208.921 2.86848L210.031 2.72353L209.966 2.22774L209.901 1.73195L208.791 1.8769L208.856 2.37269ZM209.966 2.22774L209.791 2.69612L210.901 3.11086L211.076 2.64249L211.251 2.17412L210.141 1.75937L209.966 2.22774ZM211.076 2.64249L211.497 2.91295L212.607 1.18697L212.186 0.916511L211.766 0.646055L210.656 2.37203L211.076 2.64249ZM212.186 0.916511L211.8 1.23349L212.91 2.58757L213.296 2.27059L213.683 1.95361L212.573 0.599533L212.186 0.916511ZM213.296 2.27059L213.577 2.6846L214.687 1.93294L214.406 1.51893L214.126 1.10493L213.016 1.85658L213.296 2.27059ZM214.406 1.51893L214.103 1.91647L215.213 2.76324L215.516 2.36571L215.819 1.96817L214.709 1.1214L214.406 1.51893ZM215.516 2.36571L215.509 2.86565L216.619 2.8821L216.626 2.38216L216.634 1.88221L215.524 1.86576L215.516 2.36571ZM216.626 2.38216L216.679 2.87937L217.789 2.76178L217.736 2.26456L217.684 1.76735L216.574 1.88494L216.626 2.38216ZM217.736 2.26456L217.967 2.70826L218.409 2.47849L218.179 2.03479L217.948 1.59109L217.506 1.82087L217.736 2.26456Z" fill="#1D3557"/>
</svg>
