<svg width="86" height="21" viewBox="0 0 86 21" fill="none" xmlns="http://www.w3.org/2000/svg">
<path fill-rule="evenodd" clip-rule="evenodd" d="M5.09633 1.27222V20.3551H0V1.27222H5.09633Z" fill="#1D3557"/>
<path fill-rule="evenodd" clip-rule="evenodd" d="M7.64424 1.27222H18.474C21.9922 1.27222 24.8444 4.12012 24.8444 7.63319C24.8444 11.1463 21.9922 13.9942 18.474 13.9942H12.7406V20.3551H7.64424V1.27222ZM12.7406 8.90539H18.474C19.1776 8.90539 19.748 8.3358 19.748 7.63319C19.748 6.93058 19.1776 6.361 18.474 6.361H12.7406V8.90539Z" fill="#1D3557"/>
<path fill-rule="evenodd" clip-rule="evenodd" d="M43.956 1.27222V11.1317C43.956 13.4152 45.8098 15.2664 48.0967 15.2664C50.3836 15.2664 52.2374 13.4152 52.2374 11.1317V1.27222H57.3338V11.1317C57.3338 16.2257 53.1982 20.3551 48.0967 20.3551C42.9952 20.3551 38.8596 16.2257 38.8596 11.1317V1.27222H43.956Z" fill="#1D3557"/>
<path fill-rule="evenodd" clip-rule="evenodd" d="M26.7555 10.1776C26.7555 5.25928 30.7485 1.27222 35.6741 1.27222H36.9482V6.361H35.6741C33.5631 6.361 31.8518 8.06976 31.8518 10.1776V10.8137C31.8518 16.0833 27.5736 20.3551 22.2962 20.3551H21.6592V15.2664H22.2962C24.759 15.2664 26.7555 13.2728 26.7555 10.8137V10.1776Z" fill="#1D3557"/>
<path d="M86 1.90829C86 2.96222 85.1446 3.81659 84.0887 3.81659C83.0332 3.81659 82.1778 2.96222 82.1778 1.90829C82.1778 0.854371 83.0332 0 84.0887 0C85.1446 0 86 0.854371 86 1.90829Z" fill="#1D3557"/>
<path d="M62.8053 20.3552L65.2372 10.1868L67.0453 16.3041C68.1231 19.9527 73.2989 19.9527 74.3772 16.3041L76.1847 10.1868L78.6167 20.3552H83.8561L80.0324 4.36594C79.123 0.563576 73.7569 0.422793 72.6485 4.17227L70.7112 10.7289L68.7734 4.17227C67.6656 0.422815 62.2989 0.563556 61.3896 4.36593L57.5658 20.3552H62.8053Z" fill="#1D3557"/>
</svg>
